<?xml version="1.0" encoding="UTF-8"?>
<svg id="Layer_2" data-name="Layer 2" xmlns="http://www.w3.org/2000/svg" xmlns:xlink="http://www.w3.org/1999/xlink" viewBox="0 0 513.01 639.01">
  <defs>
    <style>
      .cls-1 {
        fill: #cbd700;
      }

      .cls-2 {
        fill: url(#linear-gradient-8);
      }

      .cls-3 {
        fill: url(#linear-gradient-7);
      }

      .cls-4 {
        fill: url(#linear-gradient-5);
      }

      .cls-5 {
        fill: url(#linear-gradient-6);
      }

      .cls-6 {
        fill: url(#linear-gradient-9);
      }

      .cls-7 {
        fill: url(#linear-gradient-4);
      }

      .cls-8 {
        fill: url(#linear-gradient-3);
      }

      .cls-9 {
        fill: url(#linear-gradient-2);
      }

      .cls-10 {
        fill: #0048cc;
      }

      .cls-11 {
        fill: url(#linear-gradient);
      }

      .cls-12 {
        fill: #fa0afa;
      }

      .cls-13 {
        fill: #ffeb33;
      }

      .cls-14 {
        fill: url(#linear-gradient-10);
      }

      .cls-15 {
        fill: url(#linear-gradient-11);
      }

      .cls-16 {
        fill: url(#linear-gradient-12);
      }

      .cls-17 {
        fill: url(#linear-gradient-13);
      }

      .cls-18 {
        fill: url(#linear-gradient-19);
      }

      .cls-19 {
        fill: url(#linear-gradient-14);
      }

      .cls-20 {
        fill: url(#linear-gradient-21);
      }

      .cls-21 {
        fill: url(#linear-gradient-20);
      }

      .cls-22 {
        fill: url(#linear-gradient-22);
      }

      .cls-23 {
        fill: url(#linear-gradient-23);
      }

      .cls-24 {
        fill: url(#linear-gradient-28);
      }

      .cls-25 {
        fill: url(#linear-gradient-25);
      }

      .cls-26 {
        fill: url(#linear-gradient-32);
      }

      .cls-27 {
        fill: url(#linear-gradient-31);
      }

      .cls-28 {
        fill: url(#linear-gradient-33);
      }

      .cls-29 {
        fill: url(#linear-gradient-30);
      }

      .cls-30 {
        fill: url(#linear-gradient-15);
      }

      .cls-31 {
        fill: url(#linear-gradient-16);
      }

      .cls-32 {
        fill: url(#linear-gradient-17);
      }

      .cls-33 {
        fill: url(#linear-gradient-18);
      }

      .cls-34 {
        fill: url(#linear-gradient-35);
      }

      .cls-35 {
        fill: url(#linear-gradient-34);
      }

      .cls-36 {
        fill: url(#linear-gradient-36);
      }

      .cls-37 {
        fill: url(#linear-gradient-27);
      }

      .cls-38 {
        fill: url(#linear-gradient-24);
      }

      .cls-39 {
        fill: url(#linear-gradient-26);
      }

      .cls-40 {
        fill: url(#linear-gradient-29);
      }

      .cls-41 {
        fill: url(#linear-gradient-37);
      }
    </style>
    <linearGradient id="linear-gradient" x1="162" y1="607.51" x2="171.01" y2="607.51" gradientUnits="userSpaceOnUse">
      <stop offset="0" stop-color="#00eb01"/>
      <stop offset="1" stop-color="#fff"/>
    </linearGradient>
    <linearGradient id="linear-gradient-2" x1="171" y1="598.51" x2="180" y2="598.51" xlink:href="#linear-gradient"/>
    <linearGradient id="linear-gradient-3" x1="324" y1="571.51" x2="333.01" y2="571.51" xlink:href="#linear-gradient"/>
    <linearGradient id="linear-gradient-4" x1="369" y1="562.51" x2="378" y2="562.51" xlink:href="#linear-gradient"/>
    <linearGradient id="linear-gradient-5" x1="333" y1="562.51" x2="342" y2="562.51" xlink:href="#linear-gradient"/>
    <linearGradient id="linear-gradient-6" x1="306.01" y1="558" x2="333" y2="558" xlink:href="#linear-gradient"/>
    <linearGradient id="linear-gradient-7" x1="279" y1="562.51" x2="315" y2="562.51" xlink:href="#linear-gradient"/>
    <linearGradient id="linear-gradient-8" x1="333" y1="544.51" x2="342" y2="544.51" xlink:href="#linear-gradient"/>
    <linearGradient id="linear-gradient-9" x1="153" y1="544.51" x2="162" y2="544.51" xlink:href="#linear-gradient"/>
    <linearGradient id="linear-gradient-10" x1="117" y1="544.51" x2="126" y2="544.51" xlink:href="#linear-gradient"/>
    <linearGradient id="linear-gradient-11" x1="108" y1="535.51" x2="117" y2="535.51" xlink:href="#linear-gradient"/>
    <linearGradient id="linear-gradient-12" x1="126" y1="562.51" x2="189.01" y2="562.51" xlink:href="#linear-gradient"/>
    <linearGradient id="linear-gradient-13" x1="135" y1="508.51" x2="144" y2="508.51" xlink:href="#linear-gradient"/>
    <linearGradient id="linear-gradient-14" x1="99" y1="508.51" x2="108" y2="508.51" xlink:href="#linear-gradient"/>
    <linearGradient id="linear-gradient-15" x1="144" y1="517.5" x2="171.01" y2="517.5" xlink:href="#linear-gradient"/>
    <linearGradient id="linear-gradient-16" x1="90" y1="499.51" x2="99" y2="499.51" xlink:href="#linear-gradient"/>
    <linearGradient id="linear-gradient-17" x1="180" y1="549.01" x2="296.98" y2="549.01" xlink:href="#linear-gradient"/>
    <linearGradient id="linear-gradient-18" x1="108" y1="495" x2="153.01" y2="495" xlink:href="#linear-gradient"/>
    <linearGradient id="linear-gradient-19" x1="72" y1="463.51" x2="81" y2="463.51" xlink:href="#linear-gradient"/>
    <linearGradient id="linear-gradient-20" x1="342" y1="513.01" x2="441.01" y2="513.01" xlink:href="#linear-gradient"/>
    <linearGradient id="linear-gradient-21" x1="81" y1="472.51" x2="117.01" y2="472.51" xlink:href="#linear-gradient"/>
    <linearGradient id="linear-gradient-22" x1="63" y1="454.51" x2="72" y2="454.51" xlink:href="#linear-gradient"/>
    <linearGradient id="linear-gradient-23" x1="45" y1="454.51" x2="54" y2="454.51" xlink:href="#linear-gradient"/>
    <linearGradient id="linear-gradient-24" x1="108" y1="445.51" x2="125.99" y2="445.51" xlink:href="#linear-gradient"/>
    <linearGradient id="linear-gradient-25" x1="72" y1="450.01" x2="99" y2="450.01" xlink:href="#linear-gradient"/>
    <linearGradient id="linear-gradient-26" x1="54" y1="445.51" x2="63" y2="445.51" xlink:href="#linear-gradient"/>
    <linearGradient id="linear-gradient-27" x1="36" y1="445.51" x2="45" y2="445.51" xlink:href="#linear-gradient"/>
    <linearGradient id="linear-gradient-28" x1="396" y1="445.51" x2="423" y2="445.51" xlink:href="#linear-gradient"/>
    <linearGradient id="linear-gradient-29" x1="99" y1="436.51" x2="108" y2="436.51" xlink:href="#linear-gradient"/>
    <linearGradient id="linear-gradient-30" x1="0" y1="441.01" x2="36" y2="441.01" xlink:href="#linear-gradient"/>
    <linearGradient id="linear-gradient-31" x1="459" y1="418.51" x2="468" y2="418.51" xlink:href="#linear-gradient"/>
    <linearGradient id="linear-gradient-32" x1="468" y1="409.51" x2="477.01" y2="409.51" xlink:href="#linear-gradient"/>
    <linearGradient id="linear-gradient-33" x1="450" y1="409.51" x2="459" y2="409.51" xlink:href="#linear-gradient"/>
    <linearGradient id="linear-gradient-34" x1="441" y1="400.51" x2="450" y2="400.51" xlink:href="#linear-gradient"/>
    <linearGradient id="linear-gradient-35" x1="450" y1="387" x2="513.01" y2="387" xlink:href="#linear-gradient"/>
    <linearGradient id="linear-gradient-36" x1="198" y1="625.51" x2="207" y2="625.51" xlink:href="#linear-gradient"/>
    <linearGradient id="linear-gradient-37" x1="414" y1="418.5" x2="459" y2="418.5" xlink:href="#linear-gradient"/>
  </defs>
  <g id="Layer_1-2" data-name="Layer 1">
    <g>
      <path class="cls-12" d="M180,182.98v3.06c0,1.64-1.34,2.97-2.98,2.97h-21.04c-1.64,0-2.97-1.33-2.97-2.97v-3.06c0-1.64,1.33-2.98,2.97-2.98h3.04c1.64,0,2.97-1.33,2.97-2.97v-3.07c0-1.64,1.34-2.97,2.98-2.97h3.05c1.64,0,2.97,1.33,2.97,2.97v3.07c0,1.64,1.34,2.97,2.98,2.97h3.05c1.64,0,2.98,1.33,2.97,2.98Z"/>
      <rect class="cls-11" x="162" y="603.01" width="9" height="9" rx="2.97" ry="2.97"/>
      <rect x="405" y="306.01" width="9" height="9" rx="2.97" ry="2.97"/>
      <path class="cls-12" d="M222.03,54.01h-3.06c-1.64,0-2.97,1.33-2.97,2.97v3.06c0,1.64,1.33,2.97,2.97,2.97h3.06c1.64,0,2.97,1.33,2.97,2.97v3.05c0,1.64-1.33,2.97-2.97,2.97h-3.07c-1.64,0-2.97,1.34-2.97,2.98v3.05c0,1.64-1.33,2.97-2.97,2.97h-3.05c-1.64,0-2.97-1.33-2.97-2.97v-3.07c0-1.64-1.34-2.97-2.98-2.97h-3.06c-1.64,0-2.97,1.33-2.97,2.97v3.06c0,1.64,1.33,2.97,2.97,2.97h3.07c1.64,0,2.97,1.34,2.97,2.98v3.05c0,1.64-1.33,2.97-2.97,2.97h-3.06c-1.64,0-2.97,1.33-2.97,2.97v3.05c0,1.64-1.33,2.97-2.97,2.97h-3.05c-1.64,0-2.97-1.33-2.97-2.97v-3.06c0-1.64-1.33-2.97-2.97-2.97h-3.06c-1.64,0-2.97-1.33-2.97-2.97v-3.05c0-1.64,1.33-2.97,2.97-2.97h3.07c1.64,0,2.97-1.34,2.97-2.98v-3.06c0-1.64-1.33-2.97-2.97-2.97h-3.06c-1.64,0-2.97,1.33-2.97,2.97v3.07c0,1.64-1.34,2.97-2.98,2.97h-3.05c-1.64,0-2.97-1.33-2.97-2.97v-3.07c0-1.64-1.34-2.97-2.98-2.97h-3.06c-1.64,0-2.97,1.33-2.97,2.97v3.06c0,1.64,1.33,2.97,2.97,2.97h3.07c1.64,0,2.97,1.34,2.97,2.98v3.05c0,1.64-1.33,2.97-2.97,2.97h-3.05c-1.64,0-2.97,1.33-2.97,2.97v3.06c0,1.64-1.33,2.97-2.97,2.97h-3.05c-1.64,0-2.97-1.33-2.97-2.97v-3.06c0-1.64-1.33-2.97-2.97-2.97h-3.07c-1.64,0-2.97-1.34-2.97-2.98v-3.05c0-1.64,1.33-2.97,2.97-2.97h3.07c1.64,0,2.97-1.34,2.97-2.98v-3.06c0-1.64-1.33-2.97-2.97-2.97h-3.06c-1.64,0-2.97,1.33-2.97,2.97v3.07c0,1.64-1.33,2.97-2.98,2.97h-3.05c-1.64,0-2.97-1.33-2.97-2.97v-3.07c0-1.64-1.34-2.97-2.98-2.97h-3.06c-1.64,0-2.97,1.33-2.97,2.97v3.06c0,1.64,1.33,2.97,2.97,2.97h3.07c1.64,0,2.97,1.34,2.97,2.98v3.05c0,1.64-1.33,2.97-2.97,2.97h-3.07c-1.64,0-2.97,1.33-2.97,2.98v3.06c0,1.64,1.33,2.97,2.97,2.97h3.06c1.64,0,2.97-1.33,2.97-2.97v-3.07c0-1.64,1.34-2.97,2.98-2.97h3.05c1.64,0,2.97,1.33,2.97,2.97v3.07c0,1.64,1.33,2.97,2.97,2.97h3.06c1.64,0,2.97,1.34,2.97,2.98v3.05c0,1.64-1.33,2.97-2.98,2.97h-3.06c-1.64,0-2.97,1.33-2.97,2.97v3.06c0,1.64,1.33,2.97,2.97,2.97h3.06c1.64,0,2.97,1.33,2.97,2.97v3.05c0,1.64-1.33,2.97-2.97,2.97h-3.06c-1.64,0-2.97,1.33-2.97,2.97v3.05c0,1.64-1.33,2.97-2.97,2.97h-3.05c-1.64,0-2.97-1.33-2.97-2.97v-3.06c0-1.64-1.33-2.97-2.97-2.97h-3.06c-1.64,0-2.97-1.33-2.97-2.97v-3.05c0-1.64,1.33-2.97,2.97-2.97h3.07c1.64,0,2.97-1.34,2.97-2.98v-3.06c0-1.64-1.33-2.97-2.97-2.97h-3.06c-1.64,0-2.97,1.33-2.97,2.97v3.07c0,1.64-1.34,2.97-2.98,2.97h-3.05c-1.64,0-2.97-1.33-2.97-2.97v-3.07c0-1.64-1.34-2.97-2.98-2.97h-3.06c-1.64,0-2.97,1.33-2.97,2.97v3.06c0,1.64,1.33,2.97,2.97,2.97h3.07c1.64,0,2.97,1.34,2.97,2.98v3.05c0,1.64-1.33,2.97-2.97,2.97h-3.05c-1.64,0-2.97,1.33-2.97,2.97v3.05c0,1.64-1.33,2.97-2.97,2.97h-3.05c-1.64,0-2.97-1.33-2.97-2.97v-3.05c0-1.64-1.33-2.97-2.97-2.97h-3.06c-1.64,0-2.97-1.33-2.97-2.97v-3.05c0-1.64,1.33-2.97,2.97-2.97h3.06c1.64,0,2.97-1.33,2.97-2.97v-3.06c0-1.64-1.33-2.97-2.98-2.97h-3.06c-1.64,0-2.97-1.33-2.97-2.97v-3.05c0-1.64,1.33-2.97,2.97-2.97h3.06c1.64,0,2.97-1.33,2.97-2.97v-3.05c0-1.64,1.33-2.97,2.97-2.97h3.05c1.64,0,2.97,1.33,2.97,2.97v3.07c0,1.64,1.34,2.97,2.98,2.97h3.06c1.64,0,2.97-1.33,2.97-2.97v-3.06c0-1.64-1.33-2.97-2.97-2.97h-3.07c-1.64,0-2.97-1.34-2.97-2.98v-3.05c0-1.64,1.33-2.97,2.97-2.97h3.07c1.64,0,2.97-1.34,2.97-2.98v-3.06c0-1.64-1.33-2.97-2.97-2.97h-3.06c-1.64,0-2.97,1.33-2.97,2.97v3.07c0,1.64-1.34,2.97-2.98,2.97h-3.05c-1.64,0-2.97-1.33-2.97-2.97v-3.05c0-1.64-1.33-2.97-2.97-2.97h-3.06c-1.64,0-2.97-1.33-2.97-2.97v-3.05c0-1.64,1.33-2.97,2.97-2.97h3.06c1.64,0,2.97-1.34,2.97-2.97v-3.06c0-1.64,1.34-2.97,2.98-2.97h3.05c1.64,0,2.97,1.33,2.97,2.97v3.06c0,1.64,1.33,2.97,2.97,2.97h3.06c1.64,0,2.97-1.33,2.97-2.97v-3.06c0-1.64,1.33-2.97,2.97-2.97h3.05c1.64,0,2.97,1.33,2.97,2.97v3.07c0,1.64,1.34,2.97,2.98,2.97h3.06c1.64,0,2.97-1.33,2.97-2.97v-3.06c0-1.64-1.33-2.97-2.97-2.97h-3.06c-1.64,0-2.97-1.33-2.97-2.97v-3.06c0-1.64-1.34-2.97-2.98-2.97h-3.05c-1.64,0-2.97-1.33-2.97-2.97v-3.06c0-1.64,1.33-2.97,2.97-2.97h21.04c1.64,0,2.97,1.32,2.97,2.96v3.09c.02,1.64,1.35,2.96,2.99,2.96h3.05c1.64,0,2.97,1.33,2.97,2.97v3.05c0,1.64-1.33,2.97-2.97,2.97h-3.07c-1.64,0-2.97,1.34-2.97,2.98v3.06c0,1.64,1.33,2.97,2.97,2.97h3.06c1.64,0,2.97-1.33,2.97-2.97v-3.07c0-1.64,1.34-2.97,2.98-2.97h3.05c1.64,0,2.97,1.33,2.97,2.97v3.07c0,1.64,1.34,2.97,2.98,2.97h3.06c1.64,0,2.97-1.33,2.97-2.97v-3.06c0-1.64-1.33-2.97-2.97-2.97h-3.06c-1.64,0-2.97-1.33-2.97-2.97v-3.05c0-1.64,1.33-2.97,2.97-2.97h3.05c1.64,0,2.97-1.33,2.97-2.97v-3.08c0-1.64,1.34-2.97,2.98-2.97h3.05c1.64,0,2.96,1.32,2.97,2.96l.02,3.1c0,1.64,1.34,2.96,2.97,2.96h21.02c1.64,0,2.96-1.32,2.97-2.96l.02-3.09c0-1.63,1.33-2.95,2.97-2.96h3.06c1.64,0,2.96-1.34,2.97-2.97v-3.06c0-1.64,1.34-2.96,2.97-2.97h3.06c1.64,0,2.96-1.34,2.97-2.97v-3.06c0-1.64,1.34-2.97,2.97-2.97h3.06c1.64,0,2.97-1.33,2.97-2.97v-3.07c0-1.64,1.34-2.97,2.98-2.97h3.06c1.64,0,2.97,1.33,2.97,2.97v3.06c0,1.64-1.33,2.97-2.97,2.97h-3.07c-1.64,0-2.97,1.33-2.97,2.97v3.05c0,1.64,1.33,2.97,2.97,2.97h3.07c1.64,0,2.97,1.34,2.97,2.98v3.06c0,1.64-1.33,2.97-2.97,2.97h-3.06c-1.64,0-2.97-1.33-2.97-2.97v-3.07c0-1.64-1.34-2.97-2.98-2.97h-3.05c-1.64,0-2.97,1.33-2.97,2.97v3.07c0,1.64-1.33,2.97-2.97,2.97h-3.06c-1.64,0-2.97,1.33-2.97,2.98v3.05c0,1.64,1.33,2.97,2.97,2.97h3.07c1.64,0,2.97,1.34,2.97,2.98v3.05c0,1.64-1.33,2.97-2.98,2.97ZM189.04,60.01l-.03-3.07c-.02-1.63-1.34-2.95-2.97-2.94h-3.07c-1.64,0-2.97,1.33-2.97,2.97v3.07c0,1.64,1.33,2.97,2.97,2.97h3.1c1.65,0,2.99-1.35,2.97-3ZM207.04,60.01l-.03-3.07c-.02-1.63-1.34-2.95-2.97-2.94h-3.07c-1.64,0-2.97,1.33-2.97,2.97v3.07c0,1.64,1.33,2.97,2.97,2.97h3.1c1.65,0,2.99-1.35,2.97-3Z"/>
      <path class="cls-12" d="M432,308.98v3.05c0,1.64,1.33,2.97,2.97,2.97h3.06c1.64,0,2.97,1.33,2.97,2.97v3.05c0,1.64-1.33,2.97-2.97,2.97h-3.07c-1.64,0-2.97,1.34-2.97,2.98v3.05c0,1.64,1.33,2.97,2.97,2.97h3.07c1.64,0,2.97,1.34,2.97,2.98v3.04c0,1.64-1.34,2.98-2.98,2.97h-3.04c-1.64-.01-2.98,1.32-2.98,2.97v3.07c0,1.64-1.33,2.97-2.97,2.97h-3.05c-1.64,0-2.97-1.33-2.97-2.97v-3.05c0-1.64-1.33-2.97-2.97-2.97h-3.05c-1.64,0-2.97-1.33-2.97-2.97v-3.05c0-1.64,1.33-2.97,2.97-2.97h3.06c1.64,0,2.97-1.33,2.97-2.97v-3.06c0-1.64-1.33-2.97-2.97-2.97h-3.06c-1.64,0-2.97-1.33-2.97-2.97v-3.05c0-1.64,1.33-2.97,2.97-2.97h3.05c1.64,0,2.97-1.33,2.97-2.97v-3.05c0-1.64,1.33-2.97,2.97-2.97h3.05c1.64,0,2.97,1.33,2.97,2.97Z"/>
      <rect class="cls-9" x="171" y="594.01" width="9" height="9" rx="2.97" ry="2.97"/>
      <rect x="441" y="306.01" width="9" height="9" rx="2.97" ry="2.97"/>
      <rect class="cls-8" x="324" y="567.01" width="9" height="9" rx="2.97" ry="2.97"/>
      <rect class="cls-10" x="432" y="297.01" width="9" height="9" rx="2.97" ry="2.97"/>
      <rect class="cls-7" x="369" y="558.01" width="9" height="9" rx="2.97" ry="2.97"/>
      <rect class="cls-10" x="414" y="297.01" width="9" height="9" rx="2.97" ry="2.97"/>
      <path class="cls-12" d="M351,299.98v3.05c0,1.64,1.33,2.97,2.97,2.97h3.05c1.64,0,2.97,1.33,2.97,2.97v3.05c0,1.64,1.33,2.97,2.97,2.97h3.06c1.64,0,2.97,1.33,2.97,2.97v3.05c0,1.64-1.33,2.97-2.97,2.97h-3.06c-1.64,0-2.97,1.33-2.97,2.97v3.06c0,1.64,1.33,2.97,2.97,2.97h3.06c1.64,0,2.97,1.33,2.97,2.97v3.05c0,1.64-1.33,2.97-2.97,2.97h-3.05c-1.64,0-2.97,1.33-2.97,2.97v3.06c0,1.64-1.33,2.97-2.97,2.97h-3.05c-1.64,0-2.97-1.33-2.97-2.97v-3.05c0-1.64-1.33-2.97-2.97-2.97h-3.06c-1.64,0-2.97-1.33-2.97-2.97v-3.05c0-1.64,1.33-2.97,2.97-2.97h3.07c1.64,0,2.97-1.34,2.97-2.98v-3.06c0-1.64-1.33-2.97-2.97-2.97h-3.06c-1.64,0-2.97,1.33-2.97,2.97v3.07c0,1.64-1.34,2.97-2.98,2.97h-3.05c-1.64,0-2.97-1.33-2.97-2.97v-21.04c0-1.64,1.31-2.96,2.95-2.97l3.09-.02c1.63,0,2.95-1.33,2.95-2.97v-3.07c0-1.64,1.34-2.97,2.98-2.97h3.05c1.64,0,2.97,1.33,2.97,2.97Z"/>
      <rect class="cls-4" x="333" y="558.01" width="9" height="9" rx="2.97" ry="2.97"/>
      <path class="cls-12" d="M159.03,45.01h-3.06c-1.64,0-2.97-1.33-2.97-2.97v-3.06c0-1.64,1.33-2.97,2.97-2.97h3.06c1.64,0,2.97,1.33,2.97,2.98v3.06c0,1.64-1.33,2.97-2.97,2.97Z"/>
      <rect class="cls-12" x="108" y="45.01" width="9" height="9" rx="2.97" ry="2.97"/>
      <path class="cls-13" d="M225,60.03v-3.05c0-1.64,1.33-2.97,2.97-2.97h3.05c1.64,0,2.97-1.33,2.97-2.97v-3.07c0-1.64,1.33-2.97,2.98-2.97h3.06c1.64,0,2.97,1.33,2.97,2.97v3.06c0,1.64-1.33,2.97-2.97,2.97h-3.07c-1.64,0-2.97,1.34-2.97,2.98v3.05c0,1.64,1.33,2.97,2.97,2.97h3.07c1.64,0,2.97,1.34,2.97,2.98v3.06c0,1.64-1.33,2.97-2.97,2.97h-3.06c-1.64,0-2.97-1.33-2.97-2.97v-3.07c0-1.64-1.34-2.97-2.98-2.97h-3.05c-1.64,0-2.97-1.33-2.97-2.97Z"/>
      <path class="cls-5" d="M333,551.98v3.05c0,1.64-1.33,2.97-2.97,2.97h-3.05c-1.64,0-2.97,1.33-2.97,2.97v3.06c0,1.64-1.33,2.97-2.97,2.97h-3.05c-1.64,0-2.97-1.33-2.97-2.98v-3.04c0-1.64-1.33-2.97-2.97-2.98h-3.06c-1.64,0-2.97-1.34-2.97-2.98v-3.06c0-1.64,1.34-2.97,2.98-2.97h21.04c1.64,0,2.97,1.34,2.97,2.98Z"/>
      <path class="cls-3" d="M306,560.99v3.04c0,1.64,1.32,2.98,2.97,2.98h3.06c1.64,0,2.97,1.33,2.97,2.97v3.06c0,1.64-1.33,2.97-2.98,2.97h-12.06c-1.64,0-2.97-1.34-2.97-2.98l.02-12.05c0-1.64-1.32-2.97-2.96-2.98h-3.06c-1.64-.02-2.98,1.31-2.98,2.96v3.07c0,1.64-1.34,2.97-2.98,2.97h-3.05c-1.64,0-2.97-1.33-2.97-2.97v-3.05c0-1.64,1.33-2.97,2.97-2.97h3.05c1.64,0,2.97-1.33,2.97-2.97v-3.07c0-1.64,1.34-2.97,2.98-2.97h3.05c1.64,0,2.97,1.33,2.97,2.97v3.07c0,1.64,1.34,2.97,2.98,2.97h3.04c1.64,0,2.98,1.33,2.97,2.98Z"/>
      <rect class="cls-2" x="333" y="540.01" width="9" height="9" rx="2.97" ry="2.97"/>
      <rect class="cls-6" x="153" y="540.01" width="9" height="9" rx="2.97" ry="2.97"/>
      <path class="cls-12" d="M333,335.98v3.05c0,1.64-1.33,2.97-2.97,2.97h-3.05c-1.64,0-2.97,1.33-2.97,2.97v3.06c0,1.64-1.33,2.97-2.97,2.97h-3.05c-1.64,0-2.97-1.33-2.97-2.97v-3.05c0-1.64-1.33-2.97-2.97-2.97h-3.06c-1.64,0-2.97-1.33-2.97-2.98v-3.05c0-1.64,1.33-2.97,2.97-2.97h3.06c1.64,0,2.97-1.33,2.97-2.97v-3.06c0-1.64,1.33-2.97,2.98-2.97h3.05c1.64,0,2.97,1.33,2.97,2.97v3.07c0,1.64,1.34,2.97,2.98,2.97h3.05c1.64,0,2.97,1.33,2.97,2.97Z"/>
      <path class="cls-12" d="M447.03,189.01h-3.05c-1.64,0-2.97-1.33-2.97-2.97v-3.07c0-1.64-1.34-2.97-2.98-2.97h-3.06c-1.64,0-2.97,1.33-2.97,2.97v3.06c0,1.64,1.33,2.97,2.97,2.97h3.07c1.64,0,2.97,1.34,2.97,2.98v3.05c0,1.64-1.33,2.97-2.97,2.97h-3.06c-1.64,0-2.97,1.33-2.97,2.97v3.05c0,1.64-1.33,2.97-2.97,2.97h-3.05c-1.64,0-2.97-1.33-2.97-2.97v-3.05c0-1.64-1.33-2.97-2.97-2.97h-3.05c-1.64,0-2.97-1.33-2.97-2.97v-3.05c0-1.64,1.33-2.97,2.97-2.97h3.06c1.64,0,2.97-1.33,2.97-2.97v-3.06c0-1.64-1.33-2.97-2.97-2.97h-3.06c-1.64,0-2.97-1.33-2.97-2.97v-3.05c0-1.64,1.33-2.97,2.97-2.97h3.05c1.64,0,2.97-1.33,2.97-2.97v-3.06c0-1.64,1.33-2.97,2.97-2.97h3.05c1.64,0,2.97,1.33,2.97,2.97v3.07c0,1.64,1.34,2.97,2.98,2.97h3.06c1.64,0,2.97-1.33,2.97-2.97v-3.06c0-1.64-1.33-2.97-2.97-2.97h-3.07c-1.64,0-2.97-1.34-2.97-2.98v-3.05c0-1.64,1.33-2.97,2.98-2.97h3.06c1.64,0,2.97-1.33,2.97-2.97v-3.06c0-1.64-1.33-2.97-2.97-2.97h-3.06c-1.64,0-2.97-1.33-2.97-2.97v-3.05c0-1.64,1.33-2.97,2.97-2.97h3.07c1.64,0,2.97-1.34,2.97-2.98v-3.06c0-1.64-1.33-2.97-2.97-2.97h-3.06c-1.64,0-2.97,1.33-2.97,2.97v3.07c0,1.64-1.34,2.97-2.98,2.97h-3.05c-1.64,0-2.97-1.33-2.97-2.97v-3.06c0-1.64-1.33-2.97-2.97-2.97h-3.05c-1.64,0-2.97-1.33-2.97-2.97v-3.05c0-1.64,1.33-2.97,2.97-2.97h3.07c1.64,0,2.97-1.34,2.97-2.98v-3.06c0-1.64-1.33-2.97-2.97-2.97h-3.06c-1.64,0-2.97,1.33-2.97,2.97v3.07c0,1.64-1.34,2.97-2.98,2.97h-3.05c-1.64,0-2.97-1.33-2.97-2.97v-3.07c0-1.64-1.34-2.97-2.98-2.97h-3.06c-1.64,0-2.97,1.33-2.97,2.97v3.06c0,1.64,1.33,2.97,2.97,2.97h3.07c1.64,0,2.97,1.34,2.97,2.98v3.05c0,1.64-1.33,2.97-2.97,2.97h-3.06c-1.64,0-2.97,1.33-2.97,2.97v3.06c0,1.64-1.33,2.97-2.97,2.97h-3.05c-1.64,0-2.97-1.33-2.97-2.97v-3.06c0-1.64-1.33-2.97-2.97-2.97h-3.07c-1.64,0-2.97-1.33-2.97-2.97v-3.05c0-1.64,1.33-2.97,2.97-2.97h3.07c1.64,0,2.97-1.34,2.97-2.98v-3.06c0-1.64-1.33-2.97-2.97-2.97h-3.06c-1.64,0-2.97,1.33-2.97,2.97v3.07c0,1.64-1.33,2.97-2.97,2.97h-3.05c-1.64,0-2.97-1.33-2.97-2.97v-3.07c0-1.64-1.34-2.97-2.98-2.97h-3.06c-1.64,0-2.97,1.33-2.97,2.97v3.06c0,1.64,1.33,2.97,2.97,2.97h3.07c1.64,0,2.97,1.33,2.97,2.98v3.05c0,1.64-1.33,2.97-2.97,2.97h-3.07c-1.64,0-2.97,1.33-2.97,2.97v3.06c0,1.64,1.33,2.97,2.97,2.97h3.06c1.64,0,2.97-1.33,2.97-2.97v-3.07c0-1.64,1.34-2.97,2.98-2.97h3.05c1.64,0,2.97,1.33,2.97,2.97v3.07c0,1.64,1.33,2.97,2.97,2.97h3.06c1.64,0,2.97,1.34,2.97,2.98v3.05c0,1.64-1.33,2.97-2.98,2.97h-3.06c-1.64,0-2.97,1.33-2.97,2.97v3.06c0,1.64,1.33,2.97,2.97,2.97h3.06c1.64,0,2.97,1.33,2.97,2.97v3.05c0,1.64-1.33,2.97-2.97,2.97h-3.05c-1.64,0-2.97,1.33-2.97,2.97v3.06c0,1.64-1.33,2.97-2.97,2.97h-3.05c-1.64,0-2.97-1.33-2.97-2.97v-3.06c0-1.64-1.33-2.97-2.97-2.97h-3.05c-1.64,0-2.97-1.33-2.97-2.97v-3.05c0-1.64,1.33-2.97,2.97-2.97h3.07c1.64,0,2.97-1.34,2.97-2.98v-3.06c0-1.64-1.33-2.97-2.97-2.97h-3.06c-1.64,0-2.97,1.33-2.97,2.97v3.07c0,1.64-1.34,2.97-2.98,2.97h-3.05c-1.64,0-2.97-1.33-2.97-2.97v-3.07c0-1.64-1.34-2.97-2.98-2.97h-3.06c-1.64,0-2.97,1.33-2.97,2.97v3.06c0,1.64,1.33,2.97,2.97,2.97h3.07c1.64,0,2.97,1.34,2.97,2.98v3.05c0,1.64-1.33,2.97-2.97,2.97h-3.06c-1.64,0-2.97,1.33-2.97,2.97v3.05c0,1.64-1.33,2.97-2.97,2.97h-3.05c-1.64,0-2.97-1.33-2.97-2.97v-3.06c0-1.64-1.33-2.97-2.97-2.97h-3.06c-1.64,0-2.97,1.33-2.97,2.98v3.06c0,1.64-1.33,2.97-2.97,2.97h-3.05c-1.64,0-2.97-1.33-2.97-2.97v-3.06c0-1.64-1.33-2.97-2.97-2.97h-3.06c-1.64,0-2.97-1.33-2.97-2.97v-3.05c0-1.64,1.33-2.97,2.97-2.97h3.07c1.64,0,2.97-1.34,2.97-2.98v-3.06c0-1.64-1.33-2.97-2.97-2.97h-3.06c-1.64,0-2.97,1.33-2.97,2.97v3.07c0,1.64-1.34,2.97-2.98,2.97h-3.05c-1.64,0-2.97-1.33-2.97-2.97v-3.05c0-1.64-1.33-2.97-2.97-2.97h-3.06c-1.64,0-2.97-1.33-2.97-2.97v-3.06c0-1.64-1.34-2.97-2.98-2.97h-3.05c-1.64,0-2.97-1.33-2.97-2.97v-3.05c0-1.64,1.33-2.97,2.97-2.97h3.05c1.64,0,2.97-1.33,2.97-2.97v-3.07c0-1.64,1.34-2.97,2.98-2.97h3.05c1.64,0,2.97,1.33,2.97,2.97v3.07c0,1.64,1.33,2.97,2.97,2.97h3.06c1.64,0,2.97,1.33,2.97,2.97v3.06c0,1.64,1.33,2.97,2.97,2.97h3.06c1.64,0,2.97-1.33,2.97-2.97v-3.06c0-1.64-1.33-2.97-2.97-2.97h-3.07c-1.65,0-2.98-1.35-2.97-3l.02-3.06c.01-1.63,1.34-2.95,2.97-2.95h21.04c1.64,0,2.97,1.34,2.97,2.98v3.05c0,1.64-1.33,2.97-2.97,2.97h-3.07c-1.64,0-2.97,1.34-2.97,2.98v3.06c0,1.64,1.33,2.97,2.97,2.97h3.06c1.64,0,2.97-1.33,2.97-2.97v-3.07c0-1.64,1.34-2.97,2.98-2.97h3.05c1.64,0,2.97,1.33,2.97,2.97v3.07c0,1.64,1.34,2.97,2.98,2.97h3.06c1.64,0,2.97-1.33,2.97-2.97v-3.06c0-1.64-1.33-2.97-2.97-2.97h-3.07c-1.64,0-2.97-1.34-2.97-2.98v-3.05c0-1.64,1.33-2.97,2.97-2.97h3.06c1.64,0,2.97-1.33,2.97-2.97v-3.06c0-1.64-1.33-2.97-2.98-2.97h-3.06c-1.64,0-2.97-1.33-2.97-2.97v-3.05c0-1.64,1.33-2.97,2.97-2.97h3.06c1.64,0,2.97-1.33,2.97-2.97v-3.05c0-1.64,1.33-2.97,2.97-2.97h3.05c1.64,0,2.97,1.33,2.97,2.97v3.07c0,1.64,1.34,2.97,2.98,2.97h3.06c1.64,0,2.97-1.33,2.97-2.97v-3.06c0-1.64-1.33-2.97-2.97-2.97h-3.07c-1.64,0-2.97-1.34-2.97-2.98v-3.05c0-1.64,1.33-2.97,2.97-2.97h3.07c1.64,0,2.97-1.34,2.97-2.98v-3.06c0-1.64-1.33-2.97-2.97-2.97h-3.06c-1.64,0-2.97,1.33-2.97,2.97v3.06c0,1.64-1.33,2.97-2.97,2.97h-3.05c-1.64,0-2.97-1.33-2.97-2.97v-3.05c0-1.64-1.33-2.97-2.97-2.97h-3.07c-1.64,0-2.97-1.34-2.97-2.98v-3.05c0-1.64,1.33-2.97,2.97-2.97h3.07c1.64,0,2.97-1.33,2.97-2.98v-3.05c0-1.64-1.33-2.97-2.97-2.97h-3.07c-1.64,0-2.97-1.33-2.97-2.97v-3.06c0-1.64,1.33-2.97,2.97-2.97h3.06c1.64,0,2.97,1.33,2.97,2.97v3.07c0,1.64,1.33,2.97,2.97,2.97h3.06c1.64,0,2.97,1.33,2.97,2.97v3.07c0,1.64,1.34,2.97,2.98,2.97h3.05c1.64,0,2.97-1.33,2.97-2.97v-3.07c0-1.64,1.34-2.97,2.98-2.97h3.05c1.64,0,2.97,1.33,2.97,2.97v3.07c0,1.64,1.34,2.97,2.98,2.97h3.05c1.64,0,2.97-1.33,2.97-2.97v-3.07c0-1.64,1.34-2.97,2.98-2.97h3.05c1.64,0,2.97,1.32,2.97,2.96v3.09c.02,1.64,1.35,2.96,2.99,2.96h12.04c1.64-.01,2.98,1.32,2.98,2.96v12.06c0,1.64,1.32,2.98,2.97,2.97h12.06c1.64,0,2.98,1.32,2.97,2.97v12.04c-.01,1.64,1.31,2.97,2.95,2.98h3.09c1.64.02,2.96,1.35,2.96,2.98v3.05c0,1.64-1.33,2.97-2.97,2.97h-3.07c-1.64,0-2.97,1.33-2.97,2.98v3.06c0,1.64,1.33,2.97,2.97,2.97h3.06c1.64,0,2.97-1.33,2.97-2.97v-3.07c0-1.66,1.37-3,3.03-2.97l3.05.06c1.62.03,2.92,1.35,2.92,2.97v75c0,1.64-1.33,2.97-2.97,2.97ZM405.04,96.01l-.03-3.06c-.02-1.63-1.34-2.94-2.97-2.94h-3.07c-1.64,0-2.97-1.33-2.97-2.97v-3.05c0-1.64,1.33-2.97,2.97-2.97h3.07c1.64,0,2.97-1.33,2.97-2.97v-3.06c0-1.64-1.33-2.97-2.97-2.97h-3.06c-1.64,0-2.97,1.33-2.97,2.97v3.07c0,1.64-1.34,2.97-2.98,2.97h-3.05c-1.64,0-2.97-1.33-2.97-2.97v-3.07c0-1.64-1.33-2.97-2.98-2.97h-3.06c-1.64,0-2.97,1.33-2.97,2.97v3.06c0,1.64,1.33,2.97,2.97,2.97h3.07c1.64,0,2.97,1.33,2.97,2.97v3.05c0,1.64-1.33,2.97-2.97,2.97h-3.07c-1.64,0-2.97,1.34-2.97,2.98v3.06c0,1.64,1.33,2.97,2.97,2.97h3.06c1.64,0,2.97-1.33,2.97-2.97v-3.07c0-1.64,1.33-2.97,2.97-2.97h3.05c1.64,0,2.97,1.33,2.97,2.97v3.07c0,1.64,1.33,2.97,2.97,2.97h3.09c1.65,0,2.99-1.35,2.97-3ZM423.04,96.01l-.03-3.07c-.02-1.63-1.34-2.95-2.97-2.94h-3.07c-1.64,0-2.97,1.33-2.97,2.97v3.07c0,1.64,1.33,2.97,2.97,2.97h3.1c1.65,0,2.99-1.35,2.97-3Z"/>
      <rect class="cls-14" x="117" y="540.01" width="9" height="9" rx="2.97" ry="2.97"/>
      <rect class="cls-12" x="369" y="324.01" width="9" height="9" rx="2.97" ry="2.97"/>
      <rect class="cls-15" x="108" y="531" width="9" height="9" rx="2.97" ry="2.97"/>
      <path class="cls-10" d="M468,290.98v12.06c0,1.64-1.33,2.97-2.97,2.97h-12.06c-1.64,0-2.97-1.33-2.97-2.97v-3.05c0-1.64,1.33-2.97,2.97-2.97h3.06c1.64,0,2.97-1.33,2.97-2.97v-3.05c0-1.64,1.33-2.97,2.97-2.97h3.05c1.64,0,2.97,1.33,2.97,2.97Z"/>
      <rect x="405" y="324.01" width="9" height="9" rx="2.97" ry="2.97"/>
      <rect class="cls-10" x="423" y="288.01" width="9" height="9" rx="2.97" ry="2.97"/>
      <path class="cls-16" d="M144,524.98v3.05c0,1.64,1.33,2.97,2.97,2.97h3.06c1.64,0,2.97,1.33,2.97,2.97v3.05c0,1.64-1.33,2.97-2.97,2.97h-3.06c-1.64,0-2.97,1.33-2.97,2.97v3.06c0,1.64,1.33,2.97,2.97,2.97h3.06c1.64,0,2.97,1.33,2.97,2.97v3.05c0,1.64-1.33,2.97-2.97,2.97h-3.07c-1.64,0-2.97,1.34-2.97,2.98v3.06c0,1.64,1.33,2.97,2.97,2.97h3.06c1.64,0,2.97-1.33,2.97-2.97v-3.07c0-1.64,1.34-2.97,2.98-2.97h3.05c1.64,0,2.97,1.33,2.97,2.97v3.07c0,1.64,1.34,2.97,2.98,2.97h3.06c1.64,0,2.97-1.33,2.97-2.97v-3.06c0-1.64-1.33-2.97-2.97-2.97h-3.07c-1.64,0-2.97-1.34-2.97-2.98v-3.05c0-1.64,1.33-2.97,2.97-2.97h3.05c1.64,0,2.97-1.33,2.97-2.97v-3.06c0-1.64,1.33-2.97,2.97-2.97h3.05c1.64,0,2.97,1.33,2.97,2.97v3.07c0,1.63,1.33,2.96,2.96,2.97l3.09.02c1.64,0,2.96,1.34,2.95,2.97v21.04c0,1.64-1.34,2.97-2.98,2.97h-3.06c-1.64,0-2.97,1.33-2.97,2.97v3.05c0,1.64-1.33,2.97-2.97,2.97h-3.05c-1.64,0-2.97-1.33-2.97-2.97v-3.07c0-1.64-1.34-2.97-2.98-2.97h-3.06c-1.64,0-2.97,1.33-2.97,2.97v3.06c0,1.64,1.33,2.97,2.97,2.97h3.07c1.64,0,2.97,1.34,2.97,2.98v3.05c0,1.64-1.33,2.97-2.98,2.97h-3.05c-1.64,0-2.97,1.33-2.97,2.97v3.06c0,1.64-1.33,2.97-2.97,2.97h-3.05c-1.64,0-2.97-1.33-2.97-2.97v-3.06c0-1.64-1.33-2.97-2.97-2.97h-3.07c-1.64,0-2.97-1.33-2.97-2.97v-3.05c0-1.64,1.33-2.97,2.97-2.97h3.07c1.65,0,2.98-1.35,2.97-2.99l-.02-3.06c0-1.64-1.34-2.96-2.98-2.96l-21.02.02c-1.64,0-2.97-1.32-2.98-2.96l-.02-3.06c0-1.65,1.32-2.99,2.97-2.99h3.07c1.64,0,2.97-1.34,2.97-2.98v-3.05c0-1.64-1.33-2.97-2.97-2.97h-3.07c-1.64,0-2.97-1.34-2.97-2.98v-3.05c0-1.64,1.33-2.97,2.98-2.97h3.06c1.64,0,2.97-1.33,2.97-2.97v-3.06c0-1.64-1.33-2.97-2.97-2.97h-3.06c-1.64,0-2.97-1.33-2.97-2.97v-3.05c0-1.64,1.33-2.97,2.97-2.97h3.05c1.64,0,2.97-1.33,2.97-2.97v-3.05c0-1.64,1.33-2.97,2.97-2.97h3.05c1.64,0,2.97,1.33,2.97,2.97Z"/>
      <rect x="351" y="288.01" width="9" height="9" rx="2.97" ry="2.97"/>
      <rect class="cls-17" x="135" y="504.01" width="9" height="9" rx="2.97" ry="2.97"/>
      <path class="cls-12" d="M90,74.98v3.06c0,1.64,1.33,2.97,2.97,2.97h3.05c1.64,0,2.97,1.33,2.97,2.97v3.05c0,1.64-1.33,2.97-2.97,2.97h-3.06c-1.64,0-2.97,1.33-2.97,2.97v3.05c0,1.64-1.33,2.97-2.97,2.97h-3.05c-1.64,0-2.97-1.33-2.97-2.97v-3.05c0-1.64-1.33-2.97-2.97-2.97h-3.07c-1.64,0-2.97-1.34-2.97-2.98v-3.05c0-1.64,1.33-2.97,2.97-2.97h3.06c1.64,0,2.97-1.33,2.97-2.97v-3.06c0-1.64,1.34-2.97,2.98-2.97h3.05c1.64,0,2.97,1.33,2.97,2.97Z"/>
      <rect class="cls-10" x="468" y="279" width="9" height="9" rx="2.97" ry="2.97"/>
      <rect class="cls-19" x="99" y="504.01" width="9" height="9" rx="2.97" ry="2.97"/>
      <path class="cls-30" d="M168.03,540.01h-3.05c-1.64,0-2.97-1.33-2.97-2.97v-3.05c0-1.64-1.33-2.97-2.97-2.97h-3.05c-1.64,0-2.97-1.33-2.97-2.97v-3.05c0-1.64-1.33-2.97-2.97-2.97h-3.05c-1.64,0-2.97-1.33-2.97-2.97v-3.05c0-1.64,1.33-2.97,2.97-2.97h3.06c1.64,0,2.97-1.33,2.97-2.97v-3.06c0-1.64-1.33-2.97-2.97-2.97h-3.06c-1.64,0-2.97-1.33-2.97-2.97v-3.06c0-1.64,1.33-2.97,2.97-2.97h12.06c1.64,0,2.97,1.34,2.97,2.98v12.04c-.02,1.63,1.3,2.96,2.94,2.98l3.11.02c1.63.01,2.95,1.34,2.95,2.97v21.04c0,1.64-1.34,2.97-2.98,2.97Z"/>
      <path class="cls-10" d="M450,272.98v3.05c0,1.64,1.33,2.97,2.97,2.97h3.06c1.64,0,2.97,1.33,2.97,2.97v3.05c0,1.64-1.33,2.97-2.97,2.97h-3.05c-1.64,0-2.97,1.33-2.97,2.97v3.05c0,1.64-1.33,2.97-2.97,2.97h-3.05c-1.64,0-2.97-1.33-2.97-2.97v-3.05c0-1.64-1.33-2.97-2.97-2.97h-3.05c-1.64,0-2.97-1.33-2.97-2.97v-3.05c0-1.64,1.33-2.97,2.97-2.97h3.05c1.64,0,2.97-1.33,2.97-2.97v-3.06c0-1.64,1.33-2.97,2.97-2.97h3.05c1.64,0,2.97,1.33,2.97,2.97Z"/>
      <path class="cls-10" d="M414,272.98v3.05c0,1.64,1.33,2.97,2.97,2.97h3.05c1.64,0,2.97,1.33,2.97,2.97v3.05c0,1.64-1.33,2.97-2.97,2.97h-3.05c-1.64,0-2.97,1.33-2.97,2.97v3.06c0,1.64-1.33,2.97-2.97,2.97h-3.05c-1.64,0-2.97-1.33-2.97-2.97v-3.05c0-1.64-1.33-2.97-2.97-2.97h-3.06c-1.64,0-2.97-1.33-2.97-2.97v-3.05c0-1.64,1.33-2.97,2.97-2.97h3.05c1.64,0,2.97-1.33,2.97-2.97v-3.06c0-1.64,1.33-2.97,2.97-2.97h3.05c1.64,0,2.97,1.33,2.97,2.97Z"/>
      <rect class="cls-31" x="90" y="495" width="9" height="9" rx="2.97" ry="2.97"/>
      <rect class="cls-13" x="216" y="81" width="9" height="9" rx="2.97" ry="2.97"/>
      <path class="cls-12" d="M369,263.98v3.05c0,1.64,1.33,2.97,2.97,2.97h3.05c1.64,0,2.97,1.33,2.97,2.97v3.05c0,1.64,1.33,2.97,2.97,2.97h3.05c1.64,0,2.97,1.33,2.97,2.97v3.05c0,1.64-1.33,2.97-2.97,2.97h-3.07c-1.64,0-2.97,1.34-2.97,2.98v3.06c0,1.64,1.33,2.97,2.97,2.97h3.06c1.64,0,2.97-1.33,2.97-2.97v-3.07c0-1.64,1.34-2.97,2.98-2.97h3.05c1.64,0,2.97,1.33,2.97,2.97v3.06c0,1.64,1.33,2.97,2.97,2.97h3.05c1.64,0,2.97,1.33,2.97,2.97v3.05c0,1.64-1.33,2.97-2.97,2.97h-3.06c-1.64,0-2.97,1.33-2.97,2.97v3.06c0,1.64,1.33,2.97,2.98,2.97h3.06c1.64,0,2.97,1.33,2.97,2.97v3.05c0,1.64-1.33,2.97-2.97,2.97h-3.06c-1.64,0-2.97,1.33-2.97,2.97v3.06c0,1.64,1.33,2.97,2.97,2.97h3.06c1.64,0,2.97,1.33,2.97,2.97v3.05c0,1.64-1.33,2.97-2.97,2.97h-3.05c-1.64,0-2.97,1.33-2.97,2.97v3.06c0,1.64-1.33,2.97-2.97,2.97h-3.05c-1.64,0-2.97-1.33-2.97-2.97v-3.05c0-1.64-1.33-2.97-2.97-2.97h-3.05c-1.64,0-2.97-1.33-2.97-2.97v-3.05c0-1.64,1.33-2.97,2.97-2.97h3.06c1.64,0,2.97-1.33,2.97-2.97v-3.06c0-1.64-1.33-2.97-2.97-2.97h-3.06c-1.64,0-2.97-1.33-2.97-2.97v-3.05c0-1.64,1.33-2.97,2.97-2.97h3.07c1.64,0,2.97-1.34,2.97-2.98v-3.06c0-1.64-1.33-2.97-2.97-2.97h-3.06c-1.64,0-2.97,1.33-2.97,2.97v3.07c0,1.64-1.34,2.97-2.98,2.97h-3.05c-1.64,0-2.97-1.33-2.97-2.97v-3.06c0-1.64-1.33-2.97-2.97-2.97h-3.06c-1.64,0-2.97-1.33-2.97-2.97v-3.05c0-1.64,1.33-2.97,2.97-2.97h3.06c1.64,0,2.97-1.33,2.97-2.97v-3.06c0-1.64-1.33-2.97-2.97-2.97h-3.06c-1.64,0-2.97-1.33-2.97-2.97v-21.06c0-1.64,1.33-2.97,2.97-2.97h3.06c1.64,0,2.97,1.33,2.97,2.97Z"/>
      <rect x="405" y="468.01" width="9" height="9" rx="2.97" ry="2.97"/>
      <rect x="252" y="459" width="9" height="9" rx="2.97" ry="2.97"/>
      <path class="cls-32" d="M252,470.98v3.06c0,1.64,1.33,2.97,2.97,2.97h3.05c1.64,0,2.97-1.33,2.97-2.97v-3.06c0-1.64,1.33-2.97,2.97-2.97h3.05c1.64,0,2.97-1.32,2.97-2.96v-3.09c.02-1.64,1.35-2.96,2.99-2.96h21.02c1.64,0,2.97,1.33,2.97,2.98v3.06c0,1.64-1.33,2.97-2.97,2.97h-21.04c-1.64,0-2.97,1.34-2.97,2.98v75c0,1.62,1.31,2.95,2.93,2.97l3.14.05c1.62.02,2.93,1.35,2.93,2.97v3.05c0,1.64-1.33,2.97-2.97,2.97h-3.06c-1.64,0-2.97,1.33-2.97,2.97v3.06c0,1.64,1.33,2.97,2.97,2.97h3.06c1.64,0,2.97,1.33,2.97,2.97v3.05c0,1.64-1.33,2.97-2.97,2.97h-3.07c-1.64,0-2.97,1.34-2.97,2.98v3.05c0,1.64,1.33,2.97,2.97,2.97h3.07c1.64,0,2.97,1.34,2.97,2.98v3.05c0,1.64-1.32,2.96-2.96,2.97h-3.1c-1.64.02-2.96,1.35-2.96,2.99v21.02c0,1.64,1.32,2.96,2.96,2.97l3.1.02c1.64,0,2.96,1.34,2.96,2.97v3.05c0,1.64-1.33,2.97-2.97,2.97h-3.07c-1.63,0-2.96,1.33-2.97,2.96l-.02,3.09c0,1.64-1.34,2.96-2.97,2.96h-21.02c-1.64,0-2.96-1.32-2.97-2.96l-.02-3.1c0-1.63-1.34-2.96-2.97-2.96h-3.05c-1.64,0-2.97,1.33-2.97,2.97v3.08c0,1.64-1.34,2.97-2.98,2.97h-3.05c-1.64,0-2.97-1.33-2.97-2.97v-3.07c0-1.64-1.33-2.97-2.97-2.97h-3.06c-1.64,0-2.97-1.33-2.97-2.97v-3.07c0-1.64-1.34-2.97-2.98-2.97h-3.05c-1.64,0-2.97-1.33-2.97-2.97v-3.06c0-1.64-1.33-2.97-2.97-2.97h-3.05c-1.64,0-2.97,1.33-2.97,2.97v3.06c0,1.64-1.33,2.97-2.97,2.97h-3.05c-1.64,0-2.97-1.33-2.97-2.97v-3.06c0-1.64-1.33-2.97-2.97-2.97h-3.06c-1.64,0-2.97-1.34-2.97-2.98v-3.05c0-1.64,1.33-2.97,2.98-2.97h3.06c1.64,0,2.97-1.33,2.97-2.97v-3.06c0-1.64-1.33-2.97-2.97-2.97h-3.06c-1.64,0-2.97-1.33-2.97-2.97v-3.05c0-1.64,1.33-2.97,2.97-2.97h3.05c1.64,0,2.97-1.33,2.97-2.97v-3.06c0-1.64,1.33-2.97,2.98-2.97h3.05c1.64,0,2.97,1.33,2.97,2.97v3.06c0,1.64,1.33,2.97,2.97,2.97h3.07c1.64,0,2.97,1.33,2.97,2.97v3.05c0,1.64-1.33,2.97-2.97,2.97h-3.07c-1.64,0-2.97,1.34-2.97,2.98v3.06c0,1.64,1.33,2.97,2.97,2.97h3.06c1.64,0,2.97-1.33,2.97-2.97v-3.07c0-1.64,1.33-2.97,2.98-2.97h3.05c1.64,0,2.97,1.33,2.97,2.97v3.07c0,1.64,1.33,2.97,2.97,2.97h3.06c1.64,0,2.97,1.33,2.97,2.97v3.05c0,1.64-1.33,2.97-2.97,2.97h-3.07c-1.65,0-2.98,1.35-2.97,2.99l.02,3.06c0,1.64,1.34,2.96,2.97,2.96h21.03c1.64,0,2.96-1.32,2.97-2.96l.02-3.06c0-1.64-1.31-2.98-2.96-2.99l-3.1-.02c-1.64,0-2.96-1.34-2.96-2.97v-21.02c0-1.64,1.32-2.96,2.96-2.97l3.1-.02c1.64,0,2.96-1.34,2.96-2.97v-3.06c0-1.63-1.31-2.95-2.94-2.97l-3.13-.04c-1.63-.02-2.94-1.34-2.94-2.97v-56.98c0-1.63,1.31-2.95,2.94-2.97l3.13-.04c1.63-.02,2.94-1.34,2.94-2.97v-3.06c0-1.64-1.32-2.96-2.96-2.97l-3.1-.02c-1.64,0-2.96-1.34-2.96-2.98l.02-21.02c0-1.64-1.32-2.97-2.96-2.98l-3.09-.02c-1.63,0-2.95-1.33-2.96-2.97v-3.06c0-1.64-1.34-2.97-2.97-2.97h-3.06c-1.64,0-2.97-1.33-2.97-2.97v-3.06c0-1.64,1.33-2.97,2.97-2.97h3.06c1.64,0,2.97,1.33,2.97,2.97v3.07c0,1.64,1.33,2.97,2.98,2.97h3.05c1.64,0,2.97-1.33,2.97-2.97v-3.07c0-1.64,1.34-2.97,2.98-2.97h3.05c1.64,0,2.97,1.33,2.97,2.97v3.07c0,1.64,1.34,2.97,2.98,2.97h3.05c1.64,0,2.97,1.33,2.97,2.97ZM261.04,492.01l-.03-3.07c-.02-1.63-1.34-2.95-2.97-2.94h-3.07c-1.64,0-2.97,1.33-2.97,2.97v3.07c0,1.64,1.33,2.97,2.97,2.97h3.1c1.65,0,2.99-1.35,2.97-3ZM261.04,510.01l-.03-3.07c-.02-1.63-1.34-2.95-2.97-2.94h-3.07c-1.64,0-2.97,1.33-2.97,2.97v3.07c0,1.64,1.33,2.97,2.97,2.97h3.1c1.65,0,2.99-1.35,2.97-3ZM261.04,528.01l-.03-3.07c-.02-1.63-1.34-2.95-2.97-2.94h-3.07c-1.64,0-2.97,1.33-2.97,2.97v3.07c0,1.64,1.33,2.97,2.97,2.97h3.1c1.65,0,2.99-1.35,2.97-3ZM261.04,546.01l-.03-3.07c-.02-1.63-1.34-2.95-2.97-2.94h-3.07c-1.64,0-2.97,1.33-2.97,2.97v3.07c0,1.64,1.33,2.97,2.97,2.97h3.1c1.65,0,2.99-1.35,2.97-3ZM261.04,564.01l-.03-3.07c-.02-1.63-1.34-2.95-2.97-2.94h-3.07c-1.64,0-2.97,1.33-2.97,2.97v3.07c0,1.64,1.33,2.97,2.97,2.97h3.1c1.65,0,2.99-1.35,2.97-3ZM261.04,582.01l-.03-3.07c-.02-1.63-1.34-2.95-2.97-2.94h-3.07c-1.64,0-2.97,1.33-2.97,2.97v3.07c0,1.64,1.33,2.97,2.97,2.97h3.1c1.65,0,2.99-1.35,2.97-3ZM261.04,600.01l-.03-3.07c-.02-1.63-1.34-2.95-2.97-2.94h-3.07c-1.64,0-2.97,1.33-2.97,2.97v3.07c0,1.64,1.33,2.97,2.97,2.97h3.1c1.65,0,2.99-1.35,2.97-3ZM261.04,618.01l-.03-3.07c-.02-1.63-1.34-2.95-2.97-2.94h-3.07c-1.64,0-2.97,1.33-2.97,2.97v3.07c0,1.64,1.33,2.97,2.97,2.97h3.1c1.65,0,2.99-1.35,2.97-3Z"/>
      <path class="cls-33" d="M132.03,504.01h-3.06c-1.64,0-2.97,1.33-2.97,2.97v3.06c0,1.64,1.33,2.97,2.97,2.97h3.06c1.64,0,2.97,1.33,2.97,2.97v3.05c0,1.64-1.33,2.97-2.97,2.97h-3.05c-1.64,0-2.97,1.33-2.97,2.97v3.06c0,1.64-1.33,2.97-2.97,2.97h-3.05c-1.64,0-2.97-1.33-2.97-2.97v-3.05c0-1.64-1.33-2.97-2.97-2.97h-3.07c-1.64,0-2.97-1.34-2.97-2.98v-3.05c0-1.64,1.33-2.97,2.98-2.97h3.06c1.64,0,2.97-1.33,2.97-2.97v-3.06c0-1.64-1.33-2.97-2.97-2.97h-3.06c-1.64,0-2.97-1.33-2.97-2.97v-3.05c0-1.64,1.33-2.97,2.97-2.97h3.05c1.64,0,2.97-1.33,2.97-2.97v-3.06c0-1.64,1.33-2.97,2.98-2.97h3.05c1.64,0,2.97-1.33,2.97-2.97v-3.06c0-1.64,1.33-2.97,2.97-2.97h3.07c1.64,0,2.97-1.34,2.97-2.98v-3.05c0-1.64-1.33-2.97-2.97-2.97h-3.07c-1.64,0-2.97-1.34-2.97-2.99v-3.06c.02-1.64,1.35-2.96,2.99-2.96h12.05c1.64,0,2.97,1.34,2.97,2.98l-.02,12.04c0,1.64,1.32,2.97,2.96,2.98h3.09c1.64.01,2.96,1.34,2.96,2.98v3.06c0,1.64-1.33,2.97-2.97,2.97h-3.06c-1.64,0-2.97-1.33-2.97-2.97v-3.07c0-1.64-1.34-2.97-2.98-2.97h-3.05c-1.64,0-2.97,1.33-2.97,2.97v3.06c0,1.64-1.33,2.97-2.97,2.97h-3.07c-1.64,0-2.97,1.34-2.97,2.98v3.05c0,1.64,1.33,2.97,2.97,2.97h3.07c1.64,0,2.97,1.34,2.97,2.98v3.05c0,1.64-1.33,2.97-2.98,2.97Z"/>
      <path d="M351,83.98v3.06c0,1.64-1.33,2.97-2.97,2.97h-3.06c-1.64,0-2.97,1.33-2.97,2.97v3.05c0,1.64-1.33,2.97-2.97,2.97h-3.05c-1.64,0-2.97-1.33-2.97-2.97v-3.05c0-1.64-1.33-2.97-2.97-2.97h-3.07c-1.65,0-2.98-1.35-2.97-3l.02-3.06c.01-1.63,1.34-2.95,2.97-2.95h21.04c1.64,0,2.97,1.34,2.97,2.98Z"/>
      <rect class="cls-18" x="72" y="459.01" width="9" height="9" rx="2.97" ry="2.97"/>
      <path class="cls-12" d="M180,92.98v3.06c0,1.64,1.33,2.97,2.97,2.97h3.05c1.64,0,2.97,1.33,2.97,2.97v3.05c0,1.64-1.33,2.97-2.97,2.97h-3.06c-1.64,0-2.97,1.33-2.97,2.97v3.06c0,1.64,1.33,2.97,2.97,2.97h3.06c1.64,0,2.97,1.33,2.97,2.97v3.05c0,1.64-1.33,2.97-2.97,2.97h-3.07c-1.64,0-2.97,1.34-2.97,2.98v3.06c0,1.64,1.33,2.97,2.97,2.97h3.06c1.64,0,2.97-1.33,2.97-2.97v-3.06c0-1.64,1.33-2.97,2.97-2.97h3.06c1.64,0,2.97-1.34,2.97-2.98v-3.05c0-1.64,1.33-2.97,2.97-2.97h3.05c1.64,0,2.97-1.33,2.97-2.97v-3.06c0-1.64-1.33-2.97-2.97-2.97h-3.06c-1.64,0-2.97-1.33-2.97-2.97v-3.05c0-1.64,1.33-2.97,2.97-2.97h3.05c1.64,0,2.97-1.33,2.97-2.97v-3.06c0-1.64,1.33-2.97,2.97-2.97h3.05c1.64,0,2.97,1.33,2.97,2.97v3.05c0,1.64,1.33,2.97,2.97,2.97h3.08c1.64,0,2.97,1.34,2.97,2.98v3.05c0,1.64-1.33,2.97-2.97,2.97h-3.07c-1.64,0-2.97,1.33-2.97,2.97v3.06c0,1.64,1.33,2.97,2.97,2.97h3.06c1.64,0,2.97-1.33,2.97-2.97v-3.07c0-1.64,1.33-2.97,2.97-2.97h3.05c1.64,0,2.97-1.33,2.97-2.97v-3.06c0-1.64,1.34-2.97,2.98-2.97h3.06c1.64,0,2.97,1.33,2.97,2.97v3.06c0,1.64-1.33,2.97-2.97,2.97h-3.07c-1.65,0-2.99,1.35-2.97,3l.03,3.06c.02,1.63,1.34,2.95,2.97,2.94l39.02-.02c1.64,0,2.97,1.33,2.97,2.97v3.06c0,1.64-1.33,2.98-2.97,2.98h-21.02c-1.64,0-2.97,1.32-2.97,2.97v3.07c0,1.64,1.33,2.97,2.97,2.97h21.02c1.64,0,2.98,1.33,2.97,2.97v3.06c0,1.64-1.34,2.97-2.98,2.97l-39.04-.02c-1.64,0-2.97,1.33-2.97,2.97v12.05c0,1.64-1.33,2.97-2.97,2.97h-3.07c-1.64,0-2.97-1.33-2.97-2.97v-12.04c0-1.64,1.33-2.97,2.96-2.97h3.09c1.64-.01,2.96-1.34,2.96-2.98v-3.05c0-1.64-1.33-2.97-2.97-2.97h-3.06c-1.64,0-2.97-1.33-2.97-2.97v-3.07c0-1.64-1.34-2.97-2.99-2.97h-3.06c-1.64.02-2.96,1.35-2.96,2.99l.02,12.05c0,1.64-1.33,2.98-2.98,2.98h-12.06c-1.64-.02-2.98,1.32-2.98,2.96v3.06c0,1.64-1.33,2.97-2.97,2.97h-3.05c-1.64,0-2.97-1.33-2.97-2.97v-3.07c0-1.64-1.33-2.97-2.98-2.97h-3.06c-1.64,0-2.97,1.33-2.97,2.97v3.06c0,1.64,1.33,2.97,2.97,2.97h3.07c1.64,0,2.97,1.34,2.97,2.98v3.05c0,1.64-1.33,2.97-2.97,2.97h-39.06c-1.64,0-2.97-1.33-2.97-2.97v-3.05c0-1.64,1.33-2.97,2.97-2.97h3.06c1.64,0,2.97-1.33,2.97-2.97v-3.06c0-1.64-1.33-2.97-2.98-2.97h-3.06c-1.64,0-2.97-1.33-2.97-2.97v-3.05c0-1.64,1.33-2.97,2.97-2.97h3.05c1.64,0,2.97-1.33,2.97-2.97v-3.06c0-1.64,1.33-2.97,2.97-2.97h3.05c1.64,0,2.97,1.33,2.97,2.97v3.07c0,1.64,1.34,2.97,2.98,2.97h3.06c1.64,0,2.97-1.33,2.97-2.97v-3.06c0-1.64-1.33-2.97-2.97-2.97h-3.07c-1.64,0-2.97-1.34-2.97-2.98v-3.05c0-1.64,1.33-2.97,2.98-2.97h3.06c1.64,0,2.97-1.33,2.97-2.97v-3.06c0-1.64-1.33-2.97-2.97-2.97h-3.06c-1.64,0-2.97-1.33-2.97-2.97v-3.05c0-1.64,1.33-2.97,2.97-2.97h3.06c1.64,0,2.97-1.33,2.97-2.97v-3.05c0-1.64,1.33-2.97,2.97-2.97h3.05c1.64,0,2.97,1.33,2.97,2.97ZM171.04,150.01l-.03-3.07c-.02-1.63-1.34-2.95-2.97-2.94h-3.07c-1.64,0-2.97,1.33-2.97,2.97v3.07c0,1.64,1.33,2.97,2.97,2.97h3.1c1.65,0,2.99-1.35,2.97-3Z"/>
      <path class="cls-10" d="M306,344.98v3.06c0,1.64,1.33,2.97,2.97,2.97h3.05c1.64,0,2.97,1.33,2.97,2.97v3.05c0,1.64-1.33,2.97-2.97,2.97h-3.06c-1.64,0-2.97,1.33-2.97,2.97v3.06c0,1.64,1.33,2.97,2.97,2.97h3.06c1.64,0,2.97,1.33,2.97,2.97v3.05c0,1.64-1.33,2.97-2.97,2.97h-3.05c-1.64,0-2.97,1.33-2.97,2.97v3.06c0,1.64-1.33,2.97-2.98,2.97h-3.05c-1.64,0-2.97,1.33-2.97,2.97v3.07c0,1.64-1.33,2.97-2.98,2.97h-3.06c-1.64,0-2.97-1.33-2.97-2.97v-3.06c0-1.64,1.33-2.97,2.97-2.97h3.07c1.64,0,2.97-1.34,2.97-2.98v-3.05c0-1.64-1.33-2.97-2.97-2.97h-3.08c-1.64,0-2.97-1.34-2.97-2.98v-3.05c0-1.64,1.33-2.97,2.97-2.97h3.07c1.65,0,2.98-1.35,2.97-2.99l-.02-3.06c0-1.64-1.34-2.96-2.98-2.96l-21.02.02c-1.64,0-2.98-1.33-2.98-2.97v-3.07c0-1.64,1.33-2.97,2.98-2.97l21.02.02c1.64,0,2.97-1.32,2.98-2.96l.02-3.09c0-1.64,1.34-2.96,2.97-2.96h3.05c1.64,0,2.97,1.33,2.97,2.97Z"/>
      <path class="cls-21" d="M432,452.98v3.06c0,1.64,1.33,2.98,2.98,2.97h3.05c1.64,0,2.98,1.32,2.98,2.97v3.05c0,1.64-1.33,2.97-2.97,2.97h-3.07c-1.64,0-2.97,1.34-2.97,2.98v3.05c0,1.64,1.33,2.97,2.97,2.97h3.07c1.64,0,2.97,1.34,2.97,2.98v3.05c0,1.64-1.33,2.97-2.96,2.97h-3.09c-1.64.02-2.96,1.35-2.96,2.99l.02,12.04c0,1.64-1.33,2.98-2.98,2.98h-12.05c-1.64-.02-2.97,1.31-2.98,2.95v3.06c-.02,1.64,1.31,2.98,2.96,2.98h3.07c1.64,0,2.97,1.34,2.97,2.98v3.05c0,1.64-1.33,2.97-2.97,2.97h-3.07c-1.64,0-2.97,1.33-2.97,2.97v3.06c0,1.64-1.34,2.97-2.98,2.97h-3.05c-1.64,0-2.97-1.33-2.97-2.97v-3.07c0-1.64-1.33-2.97-2.97-2.97h-3.07c-1.64,0-2.97-1.34-2.97-2.97v-3.05c0-1.64,1.33-2.97,2.97-2.97h3.07c1.64,0,2.97-1.34,2.97-2.98v-3.06c0-1.64-1.33-2.97-2.97-2.97h-3.06c-1.64,0-2.97,1.33-2.97,2.97v3.07c0,1.64-1.33,2.97-2.97,2.97h-3.05c-1.64,0-2.97-1.33-2.97-2.97v-3.07c0-1.64-1.33-2.97-2.97-2.97h-3.06c-1.64,0-2.97,1.33-2.97,2.97v3.06c0,1.64,1.33,2.97,2.97,2.97h3.07c1.64,0,2.97,1.34,2.97,2.98v3.05c0,1.64-1.33,2.97-2.97,2.97h-3.07c-1.64,0-2.97,1.33-2.97,2.97v3.06c0,1.64,1.33,2.97,2.97,2.97h3.06c1.64,0,2.97-1.33,2.97-2.97v-3.07c0-1.64,1.34-2.97,2.98-2.97h3.05c1.64,0,2.97,1.33,2.97,2.97v3.07c0,1.64,1.33,2.97,2.97,2.97h3.07c1.64,0,2.97,1.34,2.97,2.98v3.05c0,1.64-1.32,2.97-2.96,2.97h-3.09c-1.64.02-2.96,1.35-2.96,2.99v12.04c.01,1.64-1.32,2.98-2.96,2.98h-12.06c-1.64,0-2.97-1.33-2.97-2.97v-3.05c0-1.64,1.33-2.97,2.97-2.97h3.07c1.64,0,2.97-1.33,2.97-2.98v-3.06c0-1.64-1.33-2.97-2.97-2.97h-3.06c-1.64,0-2.97,1.33-2.97,2.97v3.07c0,1.64-1.34,2.97-2.98,2.97h-3.05c-1.64,0-2.97-1.33-2.97-2.97v-3.07c0-1.64-1.34-2.97-2.98-2.97h-3.06c-1.64,0-2.97,1.33-2.97,2.97v3.06c0,1.64,1.33,2.97,2.97,2.97h3.07c1.64,0,2.97,1.34,2.97,2.98v3.05c0,1.64-1.33,2.97-2.98,2.97h-3.06c-1.64,0-2.97,1.33-2.97,2.97v3.06c0,1.64,1.33,2.97,2.98,2.97h3.06c1.64,0,2.97,1.33,2.97,2.97v3.06c0,1.64-1.33,2.97-2.97,2.97h-21.06c-1.64,0-2.97-1.33-2.97-2.97v-3.06c0-1.64,1.33-2.97,2.98-2.97h3.06c1.64,0,2.97-1.33,2.97-2.97v-3.06c0-1.64-1.33-2.97-2.98-2.97h-3.06c-1.64,0-2.97-1.33-2.97-2.97v-3.05c0-1.64,1.33-2.97,2.97-2.97h3.06c1.64,0,2.97-1.33,2.97-2.97v-3.06c0-1.64-1.33-2.97-2.97-2.97h-3.06c-1.64,0-2.97-1.33-2.97-2.97v-3.05c0-1.64,1.33-2.97,2.97-2.97h3.06c1.64,0,2.97-1.33,2.97-2.97v-3.07c0-1.64,1.33-2.97,2.98-2.97h3.05c1.64,0,2.97,1.33,2.97,2.97v3.07c0,1.64,1.34,2.97,2.98,2.97h3.06c1.64,0,2.97-1.33,2.97-2.97v-3.06c0-1.64-1.33-2.97-2.97-2.97h-3.07c-1.64,0-2.97-1.33-2.97-2.98v-3.05c0-1.64,1.32-2.97,2.96-2.97h3.09c1.64-.02,2.96-1.35,2.96-2.99l-.02-12.04c0-1.64,1.33-2.98,2.98-2.98h12.05c1.64.02,2.97-1.31,2.98-2.95v-3.06c.02-1.64-1.31-2.98-2.96-2.98h-3.07c-1.64,0-2.97-1.34-2.97-2.98v-3.05c0-1.64,1.32-2.97,2.96-2.97h3.09c1.64-.02,2.96-1.35,2.96-2.99v-12.04c-.01-1.64,1.32-2.98,2.96-2.98h12.06c1.64,0,2.97,1.33,2.97,2.98v3.05c0,1.64-1.33,2.97-2.97,2.97h-3.06c-1.64,0-2.97,1.33-2.97,2.97v3.06c0,1.64,1.33,2.97,2.97,2.97h3.06c1.64,0,2.97,1.33,2.97,2.97v3.05c0,1.64-1.33,2.97-2.97,2.97h-3.07c-1.64,0-2.97,1.34-2.97,2.98v3.06c0,1.64,1.33,2.97,2.97,2.97h3.06c1.64,0,2.97-1.33,2.97-2.97v-3.07c0-1.64,1.34-2.97,2.98-2.97h3.05c1.64,0,2.97,1.33,2.97,2.97v3.07c0,1.64,1.34,2.97,2.98,2.97h3.06c1.64,0,2.97-1.33,2.97-2.97v-3.06c0-1.64-1.33-2.97-2.97-2.97h-3.07c-1.64,0-2.97-1.34-2.97-2.98v-3.05c0-1.64,1.33-2.97,2.98-2.97h3.06c1.64,0,2.97-1.33,2.97-2.97v-3.06c0-1.64-1.33-2.97-2.97-2.97h-3.06c-1.64,0-2.97-1.33-2.97-2.97v-3.05c0-1.64,1.33-2.97,2.97-2.97h3.06c1.64,0,2.97-1.33,2.97-2.97v-3.05c0-1.64,1.33-2.97,2.97-2.97h3.05c1.64,0,2.97,1.33,2.97,2.97Z"/>
      <rect class="cls-10" x="441" y="252.01" width="9" height="9" rx="2.97" ry="2.97"/>
      <path class="cls-12" d="M342,344.98v3.06c0,1.64,1.33,2.97,2.97,2.97h3.05c1.64,0,2.97,1.33,2.97,2.97v3.05c0,1.64-1.33,2.97-2.97,2.97h-3.05c-1.64,0-2.97,1.33-2.97,2.97v3.06c0,1.64-1.33,2.97-2.97,2.97h-3.05c-1.64,0-2.97-1.33-2.97-2.97v-3.05c0-1.64-1.33-2.97-2.97-2.97h-3.05c-1.64,0-2.97-1.33-2.97-2.97v-3.05c0-1.64,1.33-2.97,2.97-2.97h3.05c1.64,0,2.97-1.33,2.97-2.97v-3.06c0-1.64,1.33-2.97,2.97-2.97h3.05c1.64,0,2.97,1.33,2.97,2.97Z"/>
      <rect class="cls-10" x="405" y="252.01" width="9" height="9" rx="2.97" ry="2.97"/>
      <rect class="cls-10" x="369" y="252.01" width="9" height="9" rx="2.97" ry="2.97"/>
      <path class="cls-12" d="M378,344.98v3.05c0,1.64,1.33,2.97,2.97,2.97h3.05c1.64,0,2.97,1.33,2.97,2.97v3.05c0,1.64-1.33,2.97-2.97,2.97h-3.05c-1.64,0-2.97,1.33-2.97,2.97v3.06c0,1.64-1.33,2.97-2.97,2.97h-3.05c-1.64,0-2.97-1.33-2.97-2.97v-3.05c0-1.64-1.33-2.97-2.97-2.97h-3.05c-1.64,0-2.97-1.33-2.97-2.97v-3.05c0-1.64,1.33-2.97,2.97-2.97h3.05c1.64,0,2.97-1.33,2.97-2.97v-3.05c0-1.64,1.33-2.97,2.97-2.97h3.05c1.64,0,2.97,1.33,2.97,2.97Z"/>
      <rect class="cls-10" x="360" y="243" width="9" height="9" rx="2.97" ry="2.97"/>
      <path class="cls-20" d="M108,452.98v3.05c0,1.64,1.33,2.97,2.97,2.97h3.07c1.64,0,2.97,1.34,2.97,2.98v3.05c0,1.64-1.33,2.97-2.97,2.97h-3.07c-1.64,0-2.97,1.34-2.97,2.98v3.05c0,1.64,1.33,2.97,2.97,2.97h3.07c1.64,0,2.97,1.34,2.97,2.98v3.05c0,1.64-1.33,2.97-2.97,2.97h-3.06c-1.64,0-2.97,1.33-2.97,2.97v3.05c0,1.64-1.33,2.97-2.97,2.97h-3.05c-1.64,0-2.97-1.33-2.97-2.97v-3.06c0-1.64-1.33-2.97-2.97-2.97h-12.06c-1.64.01-2.98-1.32-2.97-2.96v-12.06c0-1.64,1.34-2.97,2.98-2.97h3.05c1.64,0,2.97,1.33,2.97,2.97v3.07c0,1.64,1.34,2.97,2.98,2.97h3.06c1.64,0,2.97-1.33,2.97-2.97v-3.06c0-1.64-1.33-2.97-2.97-2.97h-3.07c-1.64,0-2.97-1.34-2.97-2.98v-3.05c0-1.64,1.33-2.97,2.97-2.97h3.05c1.64,0,2.97-1.33,2.97-2.97v-3.05c0-1.64,1.33-2.97,2.97-2.97h3.05c1.64,0,2.97,1.33,2.97,2.97Z"/>
      <path class="cls-12" d="M414,344.98v3.05c0,1.64,1.33,2.97,2.97,2.97h3.05c1.64,0,2.97,1.33,2.97,2.97v3.05c0,1.64-1.33,2.97-2.97,2.97h-3.05c-1.64,0-2.97,1.33-2.97,2.97v3.06c0,1.64-1.33,2.97-2.97,2.97h-3.05c-1.64,0-2.97-1.33-2.97-2.97v-3.05c0-1.64-1.33-2.97-2.97-2.97h-3.05c-1.64,0-2.97-1.33-2.97-2.97v-3.05c0-1.64,1.33-2.97,2.97-2.97h3.05c1.64,0,2.97-1.33,2.97-2.97v-3.06c0-1.64,1.33-2.97,2.97-2.97h3.05c1.64,0,2.97,1.33,2.97,2.97Z"/>
      <rect class="cls-12" x="72" y="99" width="9" height="9" rx="2.97" ry="2.97"/>
      <rect class="cls-22" x="63" y="450.01" width="9" height="9" rx="2.97" ry="2.97"/>
      <path class="cls-12" d="M432,375.03v-3.05c0-1.64,1.33-2.97,2.97-2.97h3.06c1.64,0,2.97-1.33,2.97-2.97v-3.06c0-1.64-1.33-2.97-2.97-2.97h-3.06c-1.64,0-2.97-1.33-2.97-2.97v-3.05c0-1.64,1.33-2.97,2.97-2.97h3.05c1.64,0,2.97-1.33,2.97-2.97v-3.05c0-1.64,1.34-2.97,2.98-2.97h3.06c1.64.01,2.97,1.34,2.97,2.98v30.04c0,1.64-1.33,2.97-2.97,2.97h-12.06c-1.64,0-2.97-1.33-2.97-2.97Z"/>
      <rect class="cls-23" x="45" y="450.01" width="9" height="9" rx="2.97" ry="2.97"/>
      <path class="cls-38" d="M108,447.03v-3.06c0-1.64,1.33-2.97,2.97-2.97h12.04c1.64,0,2.97,1.33,2.97,2.97v3.06c0,1.64-1.33,2.97-2.97,2.97h-12.04c-1.64,0-2.97-1.34-2.97-2.98Z"/>
      <rect class="cls-10" x="441" y="234.01" width="9" height="9" rx="2.97" ry="2.97"/>
      <path class="cls-10" d="M432,236.98v3.05c0,1.64,1.33,2.97,2.97,2.97h3.05c1.64,0,2.97,1.33,2.97,2.97v3.05c0,1.64-1.33,2.97-2.97,2.97h-3.06c-1.64,0-2.97,1.33-2.97,2.97v3.06c0,1.64,1.33,2.97,2.97,2.97h3.06c1.64,0,2.97,1.33,2.97,2.97v3.05c0,1.64-1.33,2.97-2.97,2.97h-3.05c-1.64,0-2.97,1.33-2.97,2.97v3.05c0,1.64-1.33,2.97-2.97,2.97h-3.05c-1.64,0-2.97-1.33-2.97-2.97v-3.06c0-1.64-1.33-2.97-2.97-2.97h-3.05c-1.64,0-2.97-1.33-2.97-2.97v-3.05c0-1.64,1.33-2.97,2.97-2.97h3.06c1.64,0,2.97-1.33,2.97-2.97v-3.06c0-1.64-1.33-2.97-2.97-2.97h-3.06c-1.64,0-2.97-1.33-2.97-2.97v-3.05c0-1.64,1.33-2.97,2.97-2.97h3.05c1.64,0,2.97-1.33,2.97-2.97v-3.06c0-1.64,1.33-2.97,2.97-2.97h3.05c1.64,0,2.97,1.33,2.97,2.97Z"/>
      <path class="cls-25" d="M99,443.98v3.05c0,1.64-1.33,2.97-2.97,2.97h-3.05c-1.64,0-2.97,1.33-2.97,2.97v3.06c0,1.64-1.33,2.97-2.97,2.97h-3.05c-1.64,0-2.97-1.33-2.97-2.97v-3.06c0-1.64-1.33-2.97-2.97-2.97h-3.05c-1.64,0-2.97-1.33-2.97-2.97v-3.05c0-1.64,1.33-2.97,2.97-2.97h21.05c1.64,0,2.97,1.33,2.97,2.97Z"/>
      <rect class="cls-10" x="405" y="234.01" width="9" height="9" rx="2.97" ry="2.97"/>
      <path class="cls-10" d="M396,236.98v3.05c0,1.64,1.33,2.97,2.97,2.97h3.05c1.64,0,2.97,1.33,2.97,2.97v3.05c0,1.64-1.33,2.97-2.97,2.97h-3.06c-1.64,0-2.97,1.33-2.97,2.97v3.06c0,1.64,1.33,2.97,2.97,2.97h3.06c1.64,0,2.97,1.33,2.97,2.97v3.05c0,1.64-1.33,2.97-2.97,2.97h-3.05c-1.64,0-2.97,1.33-2.97,2.97v3.05c0,1.64-1.33,2.97-2.97,2.97h-3.05c-1.64,0-2.97-1.33-2.97-2.97v-3.05c0-1.64-1.33-2.97-2.97-2.97h-3.05c-1.64,0-2.97-1.33-2.97-2.97v-3.05c0-1.64,1.33-2.97,2.97-2.97h3.06c1.64,0,2.97-1.33,2.97-2.97v-3.06c0-1.64-1.33-2.97-2.98-2.97h-3.06c-1.64,0-2.97-1.33-2.97-2.97v-3.05c0-1.64,1.33-2.97,2.97-2.97h3.06c1.64,0,2.97-1.33,2.97-2.97v-3.05c0-1.64,1.33-2.97,2.97-2.97h3.05c1.64,0,2.97,1.33,2.97,2.97Z"/>
      <rect class="cls-10" x="369" y="234.01" width="9" height="9" rx="2.97" ry="2.97"/>
      <rect class="cls-39" x="54" y="441.01" width="9" height="9" rx="2.97" ry="2.97"/>
      <rect x="450" y="225.01" width="9" height="9" rx="2.97" ry="2.97"/>
      <rect class="cls-37" x="36" y="441.01" width="9" height="9" rx="2.97" ry="2.97"/>
      <rect class="cls-10" x="432" y="225.01" width="9" height="9" rx="2.97" ry="2.97"/>
      <rect class="cls-10" x="414" y="225.01" width="9" height="9" rx="2.97" ry="2.97"/>
      <rect x="324" y="99" width="9" height="9" rx="2.97" ry="2.97"/>
      <rect class="cls-10" x="396" y="225.01" width="9" height="9" rx="2.97" ry="2.97"/>
      <rect class="cls-10" x="378" y="225.01" width="9" height="9" rx="2.97" ry="2.97"/>
      <rect class="cls-12" x="81" y="108.01" width="9" height="9" rx="2.97" ry="2.97"/>
      <rect class="cls-10" x="360" y="225" width="9" height="9" rx="2.97" ry="2.97"/>
      <path class="cls-24" d="M414,434.98v3.05c0,1.64,1.33,2.97,2.97,2.97h3.06c1.64,0,2.97,1.33,2.97,2.97v3.05c0,1.64-1.33,2.97-2.97,2.97h-3.05c-1.64,0-2.97,1.33-2.97,2.97v3.06c0,1.64-1.33,2.97-2.97,2.97h-3.05c-1.64,0-2.97-1.33-2.97-2.97v-3.05c0-1.64-1.33-2.97-2.97-2.97h-3.07c-1.64,0-2.97-1.34-2.97-2.98v-3.05c0-1.64,1.33-2.97,2.97-2.97h3.07c1.64,0,2.97-1.34,2.97-2.98v-3.05c0-1.64,1.33-2.97,2.97-2.97h3.05c1.64,0,2.97,1.33,2.97,2.97Z"/>
      <rect class="cls-40" x="99" y="432.01" width="9" height="9" rx="2.97" ry="2.97"/>
      <rect class="cls-12" x="153" y="108.01" width="9" height="9" rx="2.97" ry="2.97"/>
      <rect class="cls-12" x="315" y="360.01" width="9" height="9" rx="2.97" ry="2.97"/>
      <rect x="189" y="108.01" width="9" height="9" rx="2.97" ry="2.97"/>
      <rect x="333" y="108.01" width="9" height="9" rx="2.97" ry="2.97"/>
      <rect class="cls-12" x="351" y="360.01" width="9" height="9" rx="2.97" ry="2.97"/>
      <path class="cls-29" d="M36,434.98v3.05c0,1.64-1.33,2.97-2.97,2.97h-3.05c-1.64,0-2.97,1.32-2.97,2.96v3.09c-.02,1.64-1.35,2.96-2.99,2.96H2.99c-1.63,0-2.96-1.32-2.97-2.95L0,444c0-1.65,1.32-2.99,2.97-2.99h3.07c1.64,0,2.97-1.34,2.97-2.97v-3.06c0-1.64,1.33-2.97,2.98-2.97h3.05c1.64,0,2.97,1.33,2.97,2.97v3.07c0,1.64,1.34,2.97,2.98,2.97h3.05c1.64,0,2.97-1.33,2.97-2.97v-3.07c0-1.64,1.34-2.97,2.98-2.97h3.05c1.64,0,2.97,1.33,2.97,2.97Z"/>
      <path class="cls-12" d="M81,119.98v3.05c0,1.64,1.33,2.97,2.97,2.97h3.05c1.64,0,2.97,1.33,2.97,2.97v3.05c0,1.64,1.33,2.97,2.97,2.97h3.05c1.64,0,2.97,1.33,2.97,2.97v3.05c0,1.64-1.33,2.97-2.97,2.97h-21.06c-1.64,0-2.97-1.33-2.97-2.97v-21.06c0-1.64,1.33-2.97,2.97-2.97h3.06c1.64,0,2.97,1.33,2.97,2.97Z"/>
      <rect class="cls-12" x="387" y="360.01" width="9" height="9" rx="2.97" ry="2.97"/>
      <path class="cls-10" d="M96.02,432.01h-21.05c-1.64,0-2.97,1.32-2.97,2.97v3.06c0,1.64-1.33,2.97-2.97,2.97h-3.05c-1.64,0-2.97-1.33-2.97-2.97v-3.06c0-1.64-1.33-2.97-2.97-2.97h-3.06c-1.64,0-2.97,1.33-2.97,2.98v3.06c0,1.64-1.33,2.97-2.97,2.97h-3.05c-1.64,0-2.97-1.33-2.97-2.97v-3.05c0-1.64-1.33-2.97-2.97-2.97h-3.05c-1.64,0-2.98-1.33-2.97-2.98v-3.06c0-1.64,1.34-2.97,2.98-2.97h57.04c1.64,0,2.97,1.33,2.97,2.97v3.06c0,1.64-1.32,2.98-2.97,2.98Z"/>
      <rect class="cls-10" x="459" y="216.01" width="9" height="9" rx="2.97" ry="2.97"/>
      <rect class="cls-12" x="423" y="360.01" width="9" height="9" rx="2.97" ry="2.97"/>
      <rect class="cls-10" x="423" y="216.01" width="9" height="9" rx="2.97" ry="2.97"/>
      <rect class="cls-27" x="459" y="414.01" width="9" height="9" rx="2.97" ry="2.97"/>
      <rect class="cls-10" x="387" y="216.01" width="9" height="9" rx="2.97" ry="2.97"/>
      <path class="cls-12" d="M126,128.98v3.06c0,1.64,1.33,2.97,2.97,2.97h3.05c1.64,0,2.97,1.33,2.97,2.97v3.05c0,1.64-1.33,2.97-2.97,2.97h-3.05c-1.64,0-2.97,1.33-2.97,2.97v3.05c0,1.64-1.33,2.97-2.97,2.97h-3.05c-1.64,0-2.97-1.33-2.97-2.97v-3.06c0-1.64-1.33-2.97-2.97-2.97h-3.05c-1.64,0-2.97-1.33-2.97-2.97v-3.05c0-1.64,1.33-2.97,2.97-2.97h3.05c1.64,0,2.97-1.33,2.97-2.97v-3.06c0-1.64,1.33-2.97,2.97-2.97h3.05c1.64,0,2.97,1.33,2.97,2.97Z"/>
      <path class="cls-12" d="M414,128.98v3.05c0,1.64,1.33,2.97,2.97,2.97h3.06c1.64,0,2.97,1.33,2.97,2.97v3.05c0,1.64-1.33,2.97-2.97,2.97h-3.06c-1.64,0-2.97,1.33-2.97,2.97v3.06c0,1.64,1.33,2.97,2.97,2.97h3.06c1.64,0,2.97,1.33,2.97,2.97v3.05c0,1.64-1.33,2.97-2.97,2.97h-3.06c-1.64,0-2.97,1.33-2.97,2.97v3.05c0,1.64-1.33,2.97-2.97,2.97h-3.05c-1.64,0-2.97-1.33-2.97-2.97v-3.06c0-1.64-1.33-2.97-2.97-2.97h-3.05c-1.64,0-2.97-1.33-2.97-2.97v-3.05c0-1.64,1.33-2.97,2.97-2.97h3.06c1.64,0,2.97-1.33,2.97-2.97v-3.06c0-1.64-1.33-2.97-2.97-2.97h-3.06c-1.64,0-2.97-1.33-2.97-2.97v-3.05c0-1.64,1.33-2.97,2.97-2.97h3.05c1.64,0,2.97-1.33,2.97-2.97v-3.06c0-1.64,1.33-2.97,2.97-2.97h3.05c1.64,0,2.97,1.33,2.97,2.97Z"/>
      <rect x="405" y="414.01" width="9" height="9" rx="2.97" ry="2.97"/>
      <path class="cls-10" d="M465.03,279.01h-3.05c-1.64,0-2.97-1.33-2.97-2.97v-3.05c0-1.64-1.33-2.97-2.97-2.97h-3.05c-1.64,0-2.97-1.33-2.97-2.97v-3.05c0-1.64,1.33-2.97,2.97-2.97h3.06c1.64,0,2.97-1.33,2.97-2.97v-3.06c0-1.64-1.33-2.97-2.97-2.97h-3.06c-1.64,0-2.97-1.33-2.97-2.97v-3.05c0-1.64,1.33-2.97,2.97-2.97h3.05c1.64,0,2.97-1.33,2.97-2.97v-3.06c0-1.64,1.33-2.97,2.97-2.97h3.05c1.64,0,2.97,1.33,2.97,2.97v3.07c0,1.64,1.34,2.97,2.98,2.97h3.06c1.64,0,2.97-1.33,2.97-2.97v-3.06c0-1.64-1.33-2.97-2.97-2.97h-3.07c-1.64,0-2.97-1.34-2.97-2.98v-3.05c0-1.64,1.33-2.97,2.98-2.97h3.06c1.64,0,2.97-1.33,2.97-2.97v-3.06c0-1.64-1.33-2.97-2.97-2.97h-3.06c-1.64,0-2.97-1.33-2.97-2.97v-3.05c0-1.64,1.33-2.97,2.97-2.97h12.06c1.64,0,2.97,1.34,2.97,2.98v57.03c0,1.64-1.33,2.97-2.97,2.97h-12.07c-1.64.01-2.97,1.34-2.97,2.99v3.06c0,1.64-1.33,2.97-2.97,2.97ZM477.04,258.01l-.03-3.07c-.02-1.63-1.34-2.95-2.97-2.94h-3.07c-1.64,0-2.97,1.33-2.97,2.97v3.07c0,1.64,1.33,2.97,2.97,2.97h3.1c1.65,0,2.99-1.35,2.97-3Z"/>
      <path class="cls-13" d="M108,146.98v3.05c0,1.64-1.33,2.97-2.97,2.97h-3.05c-1.64,0-2.97,1.33-2.97,2.97v3.07c0,1.64-1.34,2.97-2.98,2.97h-3.06c-1.64,0-2.97-1.33-2.97-2.97v-3.06c0-1.64,1.33-2.97,2.97-2.97h3.07c1.64,0,2.97-1.34,2.97-2.98v-3.05c0-1.64,1.33-2.97,2.97-2.97h3.05c1.64,0,2.97,1.33,2.97,2.97Z"/>
      <rect class="cls-26" x="468" y="405" width="9" height="9" rx="2.97" ry="2.97"/>
      <rect x="135" y="144.01" width="9" height="9" rx="2.97" ry="2.97"/>
      <rect class="cls-28" x="450" y="405.01" width="9" height="9" rx="2.97" ry="2.97"/>
      <rect class="cls-12" x="387" y="144.01" width="9" height="9" rx="2.97" ry="2.97"/>
      <rect class="cls-12" x="423" y="144.01" width="9" height="9" rx="2.97" ry="2.97"/>
      <rect class="cls-1" x="108" y="153.01" width="9" height="9" rx="2.97" ry="2.97"/>
      <rect x="126" y="153.01" width="9" height="9" rx="2.97" ry="2.97"/>
      <rect class="cls-35" x="441" y="396.01" width="9" height="9" rx="2.97" ry="2.97"/>
      <rect class="cls-12" x="198" y="153.01" width="9" height="9" rx="2.97" ry="2.97"/>
      <path d="M297,173.98v3.05c0,1.64-1.33,2.97-2.97,2.97h-21.04c-1.63,0-2.96-1.31-2.97-2.95l-.02-3.1c-.01-1.63-1.33-2.95-2.96-2.95h-3.09c-1.64-.02-2.96-1.35-2.96-2.99v-12.05c0-1.64,1.33-2.97,2.98-2.97h12.06c1.64,0,2.97,1.33,2.97,2.97v12.06c0,1.64,1.33,2.97,2.97,2.97h12.06c1.64,0,2.97,1.33,2.97,2.97Z"/>
      <rect x="405" y="396.01" width="9" height="9" rx="2.97" ry="2.97"/>
      <rect x="288" y="153" width="9" height="9" rx="2.97" ry="2.97"/>
      <rect class="cls-12" x="135" y="162.01" width="9" height="9" rx="2.97" ry="2.97"/>
      <rect class="cls-12" x="369" y="396.01" width="9" height="9" rx="2.97" ry="2.97"/>
      <rect class="cls-12" x="324" y="369.01" width="9" height="9" rx="2.97" ry="2.97"/>
      <rect class="cls-12" x="189" y="162.01" width="9" height="9" rx="2.97" ry="2.97"/>
      <rect class="cls-12" x="342" y="369.01" width="9" height="9" rx="2.97" ry="2.97"/>
      <path class="cls-12" d="M198,177.03v-3.05c0-1.64,1.33-2.97,2.97-2.97h3.05c1.64,0,2.97-1.33,2.97-2.97v-3.06c0-1.64,1.33-2.97,2.97-2.97h3.05c1.64,0,2.97,1.33,2.97,2.97v3.06c0,1.64,1.33,2.97,2.97,2.97h3.06c1.65,0,2.98,1.35,2.97,3l-.02,3.06c-.01,1.63-1.34,2.95-2.97,2.95h-21.04c-1.64,0-2.97-1.34-2.97-2.98Z"/>
      <rect class="cls-12" x="360" y="369.01" width="9" height="9" rx="2.97" ry="2.97"/>
      <rect class="cls-10" x="459" y="198.01" width="9" height="9" rx="2.97" ry="2.97"/>
      <rect class="cls-12" x="378" y="369.01" width="9" height="9" rx="2.97" ry="2.97"/>
      <path class="cls-10" d="M450,200.98v3.06c0,1.64,1.33,2.97,2.97,2.97h3.05c1.64,0,2.97,1.33,2.97,2.97v3.05c0,1.64-1.33,2.97-2.97,2.97h-3.05c-1.64,0-2.97,1.33-2.97,2.97v3.06c0,1.64-1.33,2.97-2.97,2.97h-3.05c-1.64,0-2.97-1.33-2.97-2.97v-3.05c0-1.64-1.33-2.97-2.97-2.97h-3.05c-1.64,0-2.97-1.33-2.97-2.97v-3.05c0-1.64,1.33-2.97,2.97-2.97h3.05c1.64,0,2.97-1.33,2.97-2.97v-3.06c0-1.64,1.33-2.97,2.97-2.97h3.05c1.64,0,2.97,1.33,2.97,2.97Z"/>
      <rect x="396" y="369.01" width="9" height="9" rx="2.97" ry="2.97"/>
      <path class="cls-10" d="M414,200.98v3.05c0,1.64,1.33,2.97,2.97,2.97h3.05c1.64,0,2.97,1.33,2.97,2.97v3.05c0,1.64-1.33,2.97-2.97,2.97h-3.05c-1.64,0-2.97,1.33-2.97,2.97v3.06c0,1.64-1.33,2.97-2.97,2.97h-3.05c-1.64,0-2.97-1.33-2.97-2.97v-3.05c0-1.64-1.33-2.97-2.97-2.97h-3.05c-1.64,0-2.97-1.33-2.97-2.97v-3.05c0-1.64,1.33-2.97,2.97-2.97h3.06c1.64,0,2.97-1.33,2.97-2.97v-3.05c0-1.64,1.33-2.97,2.97-2.97h3.05c1.64,0,2.97,1.33,2.97,2.97Z"/>
      <rect x="414" y="369.01" width="9" height="9" rx="2.97" ry="2.97"/>
      <rect class="cls-10" x="468" y="189" width="9" height="9" rx="2.97" ry="2.97"/>
      <path class="cls-34" d="M465.03,405.01h-3.05c-1.64,0-2.97-1.33-2.97-2.97v-3.05c0-1.64-1.33-2.97-2.97-2.97h-3.06c-1.64,0-2.97-1.33-2.97-2.97v-3.05c0-1.64,1.33-2.97,2.97-2.97h3.06c1.64,0,2.97-1.33,2.97-2.97v-3.07c0-1.64,1.33-2.97,2.97-2.97h3.05c1.64,0,2.97,1.33,2.97,2.97v3.08c0,1.64,1.34,2.97,2.98,2.97h3.05c1.64,0,2.97-1.33,2.97-2.97v-3.07c0-1.64,1.34-2.97,2.97-2.97h3.05c1.64,0,2.97-1.33,2.97-2.97v-3.07c0-1.64,1.34-2.97,2.98-2.97h3.05c1.64,0,2.97,1.33,2.97,2.97v3.07c0,1.64,1.34,2.97,2.98,2.97h3.05c1.64,0,2.97-1.33,2.97-2.97v-3.07c0-1.64,1.33-2.97,2.98-2.97h3.06c1.64,0,2.97,1.33,2.97,2.97v3.06c0,1.64-1.33,2.97-2.97,2.97h-3.06c-1.64,0-2.97,1.33-2.97,2.97v3.07c0,1.64-1.34,2.97-2.97,2.97h-3.05c-1.64,0-2.97-1.33-2.97-2.97v-3.08c0-1.64-1.34-2.97-2.98-2.97h-3.05c-1.64,0-2.97,1.33-2.97,2.97v3.07c0,1.64-1.33,2.97-2.97,2.97h-3.06c-1.64,0-2.97,1.33-2.97,2.97v3.06c0,1.64-1.33,2.97-2.97,2.97h-3.07c-1.64,0-2.97,1.34-2.97,2.98v3.05c0,1.64-1.33,2.97-2.97,2.97Z"/>
      <rect class="cls-12" x="333" y="396.01" width="9" height="9" rx="2.97" ry="2.97"/>
      <rect x="450" y="189.01" width="9" height="9" rx="2.97" ry="2.97"/>
      <rect x="297" y="162.01" width="9" height="9" rx="2.97" ry="2.97"/>
      <path class="cls-10" d="M360,164.98v3.06c0,1.64,1.33,2.97,2.97,2.97h3.05c1.64,0,2.97,1.33,2.97,2.97v3.05c0,1.64-1.33,2.97-2.97,2.97h-3.07c-1.64,0-2.97,1.34-2.97,2.98v3.06c0,1.64,1.33,2.97,2.97,2.97h3.06c1.64,0,2.97-1.33,2.97-2.97v-3.07c0-1.64,1.34-2.97,2.98-2.97h3.05c1.64,0,2.97,1.33,2.97,2.97v3.07c0,1.64,1.34,2.97,2.98,2.97h3.06c1.64,0,2.97-1.33,2.97-2.97v-3.06c0-1.64-1.33-2.97-2.97-2.97h-3.07c-1.64,0-2.97-1.34-2.97-2.98v-3.05c0-1.64,1.33-2.97,2.97-2.97h3.05c1.64,0,2.97-1.33,2.97-2.97v-3.06c0-1.64,1.33-2.97,2.97-2.97h3.05c1.64,0,2.97,1.33,2.97,2.97v3.05c0,1.64,1.33,2.97,2.97,2.97h3.05c1.64,0,2.97,1.33,2.97,2.97v3.05c0,1.64-1.33,2.97-2.97,2.97h-3.06c-1.64,0-2.97,1.33-2.97,2.97v3.06c0,1.64,1.33,2.97,2.97,2.97h3.06c1.64,0,2.97,1.33,2.97,2.97v3.05c0,1.64-1.33,2.97-2.97,2.97h-3.05c-1.64,0-2.97,1.33-2.97,2.97v3.06c0,1.64-1.33,2.97-2.97,2.97h-3.05c-1.64,0-2.97-1.33-2.97-2.97v-3.07c0-1.64-1.34-2.97-2.98-2.97h-3.06c-1.64,0-2.97,1.33-2.97,2.97v3.06c0,1.64,1.33,2.97,2.97,2.97h3.07c1.64,0,2.97,1.34,2.97,2.98v3.05c0,1.64-1.33,2.97-2.97,2.97h-3.06c-1.64,0-2.97,1.33-2.97,2.97v3.06c0,1.64-1.33,2.97-2.97,2.97h-3.05c-1.64,0-2.97-1.33-2.97-2.97v-3.05c0-1.64-1.32-2.97-2.96-2.97h-3.09c-1.64-.02-2.96-1.35-2.96-2.99l.02-12.03c0-1.64-1.32-2.97-2.96-2.98h-3.1c-1.64-.02-2.96-1.35-2.96-2.99l.02-12.04c0-1.64-1.33-2.98-2.97-2.98h-3.06c-1.64,0-2.97-1.33-2.97-2.97v-3.05c0-1.64,1.33-2.97,2.97-2.97h3.05c1.64,0,2.97-1.33,2.97-2.97v-3.06c0-1.64,1.33-2.97,2.97-2.97h3.05c1.64,0,2.97,1.33,2.97,2.97Z"/>
      <rect class="cls-1" x="126" y="171" width="9" height="9" rx="2.97" ry="2.97"/>
      <path class="cls-12" d="M150.03,180.01h-3.05c-1.64,0-2.97-1.33-2.97-2.97v-3.06c0-1.64,1.33-2.97,2.97-2.97h3.05c1.64,0,2.97,1.33,2.97,2.97v3.06c0,1.64-1.32,2.98-2.97,2.98Z"/>
      <rect class="cls-36" x="198" y="621.01" width="9" height="9" rx="2.97" ry="2.97"/>
      <path class="cls-12" d="M189,173.98v3.06c0,1.64-1.33,2.97-2.97,2.97h-3.05c-1.64,0-2.97-1.33-2.97-2.98v-3.06c0-1.64,1.34-2.97,2.98-2.97h3.05c1.64,0,2.97,1.33,2.97,2.97Z"/>
      <path d="M315,173.98v3.06c0,1.64,1.33,2.97,2.97,2.97h3.06c1.64,0,2.97,1.33,2.97,2.97v3.06c0,1.64-1.33,2.97-2.97,2.97h-21.06c-1.64,0-2.97-1.33-2.97-2.97v-3.06c0-1.64,1.33-2.97,2.97-2.97h3.06c1.64,0,2.97-1.33,2.97-2.97v-3.05c0-1.64,1.33-2.97,2.97-2.97h3.05c1.64,0,2.97,1.33,2.97,2.97Z"/>
      <path class="cls-41" d="M432,380.98v3.05c0,1.64,1.33,2.97,2.97,2.97h3.07c1.64,0,2.97,1.34,2.97,2.98v3.05c0,1.64-1.33,2.97-2.98,2.97h-3.06c-1.64,0-2.97,1.33-2.97,2.97v3.06c0,1.64,1.33,2.97,2.97,2.97h3.06c1.64,0,2.97,1.33,2.97,2.97v3.05c0,1.64-1.33,2.97-2.97,2.97h-3.07c-1.64,0-2.97,1.34-2.97,2.98v3.06c0,1.64,1.33,2.97,2.97,2.97h3.06c1.64,0,2.97-1.33,2.97-2.97v-3.07c0-1.64,1.34-2.97,2.98-2.97h3.05c1.64,0,2.97,1.33,2.97,2.97v3.05c0,1.64,1.33,2.97,2.97,2.97h3.06c1.64,0,2.97,1.33,2.97,2.97v3.06c0,1.64-1.32,2.97-2.96,2.97h-3.09c-1.64.02-2.96,1.35-2.96,2.99l.02,21.03c0,1.64-1.33,2.97-2.97,2.98h-3.06c-1.64,0-2.98-1.33-2.98-2.97v-3.05c0-1.64-1.33-2.97-2.97-2.97h-3.05c-1.64,0-2.97-1.33-2.97-2.97v-3.05c0-1.64,1.33-2.97,2.97-2.97h3.07c1.64,0,2.97-1.34,2.97-2.98v-3.06c0-1.64-1.33-2.97-2.97-2.97h-3.06c-1.64,0-2.97,1.33-2.97,2.97v3.07c0,1.64-1.34,2.97-2.98,2.97h-3.05c-1.64,0-2.97-1.33-2.97-2.97v-3.06c0-1.64-1.33-2.97-2.97-2.97h-3.05c-1.64,0-2.97-1.33-2.97-2.97v-3.05c0-1.64,1.33-2.97,2.97-2.97h3.06c1.64,0,2.97-1.33,2.97-2.97v-3.06c0-1.64-1.33-2.97-2.97-2.97h-3.06c-1.64,0-2.97-1.33-2.97-2.97v-3.05c0-1.64,1.33-2.97,2.97-2.97h3.06c1.64,0,2.97-1.33,2.97-2.97v-3.06c0-1.64-1.33-2.97-2.97-2.97h-3.06c-1.64,0-2.97-1.33-2.97-2.97v-3.05c0-1.64,1.33-2.97,2.97-2.97h3.05c1.64,0,2.97-1.33,2.97-2.97v-3.06c0-1.64,1.33-2.97,2.97-2.97h3.05c1.64,0,2.97,1.33,2.97,2.97Z"/>
      <rect x="324" y="171.01" width="9" height="9" rx="2.97" ry="2.97"/>
      <rect x="405" y="378.01" width="9" height="9" rx="2.97" ry="2.97"/>
      <path class="cls-13" d="M144,182.98v12.06c0,1.64-1.33,2.97-2.97,2.97h-12.05c-1.64,0-2.97-1.32-2.97-2.95v-3.06c-.02-1.64,1.31-2.98,2.96-2.98h3.07c1.64,0,2.97-1.34,2.97-2.98v-3.05c0-1.64,1.33-2.97,2.97-2.97h3.05c1.64,0,2.97,1.33,2.97,2.97Z"/>
      <rect class="cls-12" x="189" y="180.01" width="9" height="9" rx="2.97" ry="2.97"/>
      <path class="cls-12" d="M324,380.98v3.05c0,1.64,1.33,2.97,2.97,2.97h3.05c1.64,0,2.97,1.33,2.97,2.97v3.05c0,1.64-1.33,2.97-2.97,2.97h-3.06c-1.64,0-2.97,1.33-2.97,2.97v3.06c0,1.64,1.33,2.97,2.97,2.97h3.06c1.64,0,2.97,1.33,2.97,2.97v3.05c0,1.64-1.33,2.97-2.97,2.97h-3.05c-1.64,0-2.97,1.33-2.97,2.97v3.06c0,1.64-1.33,2.97-2.98,2.97h-3.05c-1.64,0-2.97,1.33-2.97,2.97v3.07c0,1.64-1.33,2.97-2.98,2.97h-3.06c-1.64,0-2.97-1.33-2.97-2.97v-3.06c0-1.64,1.33-2.97,2.97-2.97h3.07c1.64,0,2.97-1.34,2.97-2.98v-3.05c0-1.63-1.32-2.96-2.96-2.97l-3.1-.02c-1.63-.01-2.95-1.34-2.95-2.97v-21.03c0-1.64,1.34-2.97,2.98-2.97h3.06c1.64,0,2.97-1.33,2.97-2.97v-3.05c0-1.64,1.33-2.97,2.97-2.97h3.05c1.64,0,2.97,1.33,2.97,2.97Z"/>
      <rect class="cls-10" x="459" y="180" width="9" height="9" rx="2.97" ry="2.97"/>
      <rect class="cls-12" x="333" y="378.01" width="9" height="9" rx="2.97" ry="2.97"/>
      <rect x="405" y="180.01" width="9" height="9" rx="2.97" ry="2.97"/>
      <path class="cls-12" d="M360,380.98v3.05c0,1.64,1.33,2.97,2.97,2.97h3.05c1.64,0,2.97,1.33,2.97,2.97v3.05c0,1.64-1.33,2.97-2.97,2.97h-3.06c-1.64,0-2.97,1.33-2.97,2.97v3.06c0,1.64,1.33,2.97,2.97,2.97h3.06c1.64,0,2.97,1.33,2.97,2.97v3.05c0,1.64-1.33,2.97-2.97,2.97h-3.07c-1.64,0-2.97,1.34-2.97,2.98v3.06c0,1.64,1.33,2.97,2.97,2.97h3.06c1.64,0,2.97-1.33,2.97-2.97v-3.07c0-1.64,1.34-2.97,2.98-2.97h3.05c1.64,0,2.97,1.33,2.97,2.97v3.07c0,1.64,1.34,2.97,2.98,2.97h3.06c1.64,0,2.97-1.33,2.97-2.97v-3.06c0-1.64-1.33-2.97-2.97-2.97h-3.07c-1.64,0-2.97-1.34-2.97-2.98v-3.05c0-1.64,1.33-2.97,2.98-2.97h3.06c1.64,0,2.97-1.33,2.97-2.97v-3.06c0-1.64-1.33-2.97-2.97-2.97h-3.06c-1.64,0-2.97-1.33-2.97-2.97v-3.05c0-1.64,1.33-2.97,2.97-2.97h3.05c1.64,0,2.97-1.33,2.97-2.97v-3.06c0-1.64,1.33-2.97,2.97-2.97h3.05c1.64,0,2.97,1.33,2.97,2.97v3.05c0,1.64,1.33,2.97,2.97,2.97h3.05c1.64,0,2.97,1.33,2.97,2.97v3.05c0,1.64-1.33,2.97-2.97,2.97h-3.06c-1.64,0-2.97,1.33-2.97,2.97v3.06c0,1.64,1.33,2.97,2.97,2.97h3.06c1.64,0,2.97,1.33,2.97,2.97v3.05c0,1.64-1.33,2.97-2.97,2.97h-3.06c-1.64,0-2.97,1.33-2.97,2.97v3.06c0,1.64,1.33,2.97,2.97,2.97h3.06c1.64,0,2.97,1.33,2.97,2.97v3.05c0,1.64-1.33,2.97-2.97,2.97h-74.99c-1.63,0-2.96-1.31-2.97-2.94l-.03-3.06c-.02-1.65,1.32-3,2.97-3h3.02c1.64,0,2.97-1.33,2.97-2.97v-3.06c0-1.64,1.33-2.97,2.97-2.97h3.05c1.64,0,2.97,1.33,2.97,2.97v3.07c0,1.64,1.34,2.97,2.98,2.97h3.06c1.64,0,2.97-1.33,2.97-2.97v-3.06c0-1.64-1.33-2.97-2.97-2.97h-3.07c-1.64,0-2.97-1.34-2.97-2.98v-3.05c0-1.64,1.33-2.97,2.98-2.97h3.06c1.64,0,2.97-1.33,2.97-2.97v-3.06c0-1.64-1.33-2.97-2.97-2.97h-3.06c-1.64,0-2.97-1.33-2.97-2.97v-3.05c0-1.64,1.33-2.97,2.97-2.97h3.05c1.64,0,2.97-1.33,2.97-2.97v-3.06c0-1.64,1.33-2.97,2.97-2.97h3.05c1.64,0,2.97,1.33,2.97,2.97Z"/>
      <rect x="333" y="180.01" width="9" height="9" rx="2.97" ry="2.97"/>
      <rect class="cls-12" x="369" y="378.01" width="9" height="9" rx="2.97" ry="2.97"/>
      <path d="M213.02,252h-57c-1.63,0-2.95-1.3-2.97-2.92l-.04-3.06c-.02-1.65,1.31-3.01,2.96-3.01h3.08c1.64-.02,2.96-1.35,2.96-2.99v-12.05c0-1.64,1.33-2.97,2.97-2.97h39.02c1.63,0,2.96,1.32,2.97,2.95l.03,3.11c.01,1.63,1.34,2.94,2.96,2.95h3.09c1.64.01,2.97,1.35,2.96,2.99l-.02,12.05c0,1.64-1.33,2.97-2.97,2.97ZM189.04,240.01l-.03-3.07c-.02-1.63-1.34-2.95-2.97-2.94h-3.07c-1.64,0-2.97,1.33-2.97,2.97v3.07c0,1.64,1.33,2.97,2.97,2.97h3.1c1.65,0,2.99-1.35,2.97-3Z"/>
      <path d="M342,236.94v3.1c0,1.64,1.34,2.96,2.97,2.97h3.07c1.65,0,2.99,1.36,2.97,3.02l-.04,3.05c-.02,1.63-1.35,2.93-2.97,2.93h-56.97c-1.63,0-2.95-1.31-2.97-2.93l-.04-3.06c-.02-1.65,1.31-3.01,2.96-3.01h3.08c1.64-.02,2.96-1.35,2.96-2.99v-12.04c-.02-1.64,1.32-2.98,2.96-2.98h12.04c1.64.02,2.97-1.31,2.98-2.95v-3.09c.02-1.64,1.35-2.96,2.98-2.96h3.05c1.64,0,2.97,1.33,2.97,2.97v3.06c0,1.64,1.33,2.97,2.97,2.97h3.07c1.64,0,2.97,1.34,2.97,2.98v3.05c0,1.64-1.33,2.97-2.97,2.97h-3.07c-1.64,0-2.97,1.34-2.97,2.98v3.06c0,1.64,1.33,2.97,2.97,2.97h3.06c1.64,0,2.97-1.33,2.97-2.97v-3.07c0-1.63,1.32-2.96,2.95-2.97l3.05-.03c1.65-.01,3,1.32,3,2.97Z"/>
      <rect x="117" y="306.01" width="9" height="9" rx="2.97" ry="2.97"/>
      <rect x="153" y="378.01" width="9" height="9" rx="2.97" ry="2.97"/>
      <path class="cls-10" d="M108,308.98v3.05c0,1.64,1.33,2.97,2.97,2.97h3.05c1.64,0,2.97,1.33,2.97,2.97v3.05c0,1.64-1.33,2.97-2.97,2.97h-3.06c-1.64,0-2.97,1.33-2.97,2.97v3.06c0,1.64,1.33,2.97,2.97,2.97h3.06c1.64,0,2.97,1.33,2.97,2.97v3.05c0,1.64-1.33,2.97-2.97,2.97h-3.05c-1.64,0-2.97,1.33-2.97,2.97v3.06c0,1.64-1.33,2.97-2.97,2.97h-3.05c-1.64,0-2.97-1.33-2.97-2.97v-3.05c0-1.64-1.33-2.97-2.97-2.97h-3.05c-1.64,0-2.97-1.33-2.97-2.97v-3.05c0-1.64,1.33-2.97,2.97-2.97h3.06c1.64,0,2.97-1.33,2.97-2.97v-3.06c0-1.64-1.33-2.97-2.97-2.97h-3.06c-1.64,0-2.97-1.33-2.97-2.97v-3.05c0-1.64,1.33-2.97,2.97-2.97h3.05c1.64,0,2.97-1.33,2.97-2.97v-3.05c0-1.64,1.33-2.97,2.97-2.97h3.05c1.64,0,2.97,1.33,2.97,2.97Z"/>
      <path class="cls-10" d="M144,380.98v3.05c0,1.64,1.33,2.97,2.97,2.97h3.05c1.64,0,2.97,1.33,2.97,2.97v3.05c0,1.64-1.33,2.97-2.97,2.97h-3.05c-1.64,0-2.97,1.33-2.97,2.97v3.06c0,1.64-1.33,2.97-2.97,2.97h-3.05c-1.64,0-2.97-1.33-2.97-2.97v-3.05c0-1.64-1.33-2.97-2.97-2.97h-3.05c-1.64,0-2.97-1.33-2.97-2.97v-3.05c0-1.64,1.33-2.97,2.97-2.97h3.05c1.64,0,2.97-1.33,2.97-2.97v-3.06c0-1.64,1.33-2.97,2.97-2.97h3.05c1.64,0,2.97,1.33,2.97,2.97Z"/>
      <rect x="81" y="306.01" width="9" height="9" rx="2.97" ry="2.97"/>
      <rect class="cls-10" x="117" y="378.01" width="9" height="9" rx="2.97" ry="2.97"/>
      <rect x="171" y="360.01" width="9" height="9" rx="2.97" ry="2.97"/>
      <path class="cls-10" d="M54,308.98v3.06c0,1.64,1.33,2.97,2.97,2.97h3.06c1.64,0,2.97-1.33,2.97-2.98v-3.06c0-1.64,1.33-2.97,2.97-2.97h3.05c1.64,0,2.97,1.33,2.97,2.97v3.06c0,1.64,1.33,2.97,2.97,2.97h3.05c1.64,0,2.97,1.33,2.97,2.97v3.05c0,1.64-1.33,2.97-2.97,2.97h-3.06c-1.64,0-2.97,1.33-2.97,2.97v3.06c0,1.64,1.33,2.97,2.97,2.97h3.06c1.64,0,2.97,1.33,2.97,2.97v3.05c0,1.64-1.33,2.97-2.97,2.97h-3.05c-1.64,0-2.97,1.33-2.97,2.97v3.06c0,1.64-1.33,2.97-2.97,2.97h-3.05c-1.64,0-2.97-1.33-2.97-2.97v-3.05c0-1.64-1.33-2.97-2.97-2.97h-3.06c-1.64,0-2.97-1.33-2.97-2.97v-3.05c0-1.64,1.33-2.97,2.97-2.97h3.07c1.64,0,2.97-1.34,2.97-2.98v-3.06c0-1.64-1.33-2.97-2.97-2.97h-3.06c-1.64,0-2.97,1.33-2.97,2.97v3.07c0,1.64-1.34,2.97-2.98,2.97h-3.05c-1.64,0-2.97-1.33-2.97-2.97v-21.06c0-1.64,1.33-2.97,2.97-2.97h3.06c1.64,0,2.97,1.33,2.97,2.97Z"/>
      <path class="cls-10" d="M144,308.98v3.05c0,1.64,1.33,2.97,2.97,2.97h3.07c1.64,0,2.97,1.34,2.97,2.98v3.05c0,1.64-1.33,2.97-2.97,2.97h-3.06c-1.64,0-2.97,1.33-2.97,2.97v3.06c0,1.64,1.33,2.97,2.97,2.97h3.06c1.64,0,2.97,1.33,2.97,2.97v3.05c0,1.64-1.33,2.97-2.97,2.97h-3.05c-1.64,0-2.97,1.33-2.97,2.97v3.06c0,1.64-1.33,2.97-2.97,2.97h-3.05c-1.64,0-2.97-1.33-2.97-2.97v-3.05c0-1.64-1.33-2.97-2.97-2.97h-3.05c-1.64,0-2.97-1.33-2.97-2.97v-3.05c0-1.64,1.33-2.97,2.97-2.97h3.06c1.64,0,2.97-1.33,2.97-2.97v-3.06c0-1.64-1.33-2.97-2.97-2.97h-3.06c-1.64,0-2.97-1.33-2.97-2.97v-3.05c0-1.64,1.33-2.97,2.97-2.97h3.05c1.64,0,2.97-1.33,2.97-2.97v-3.05c0-1.64,1.33-2.97,2.97-2.97h3.05c1.64,0,2.97,1.33,2.97,2.97Z"/>
      <rect class="cls-10" x="135" y="360.01" width="9" height="9" rx="2.97" ry="2.97"/>
      <rect class="cls-10" x="81" y="324.01" width="9" height="9" rx="2.97" ry="2.97"/>
      <rect class="cls-10" x="144" y="297" width="9" height="9" rx="2.97" ry="2.97"/>
      <path class="cls-10" d="M108,380.98v3.05c0,1.64,1.33,2.97,2.97,2.97h3.05c1.64,0,2.97,1.33,2.97,2.97v3.05c0,1.64-1.33,2.97-2.97,2.97h-3.05c-1.64,0-2.97,1.33-2.97,2.97v3.06c0,1.64-1.33,2.97-2.98,2.97h-3.06c-1.64,0-2.97-1.33-2.97-2.97v-3.06c0-1.64-1.33-2.97-2.97-2.97h-3.05c-1.64,0-2.97-1.33-2.97-2.97v-3.05c0-1.64,1.33-2.97,2.97-2.97h3.05c1.64,0,2.97-1.33,2.97-2.97v-3.06c0-1.64,1.33-2.97,2.97-2.97h3.05c1.64,0,2.97,1.33,2.97,2.97Z"/>
      <rect class="cls-10" x="99" y="360.01" width="9" height="9" rx="2.97" ry="2.97"/>
      <rect class="cls-10" x="81" y="396.01" width="9" height="9" rx="2.97" ry="2.97"/>
      <rect class="cls-10" x="63" y="360.01" width="9" height="9" rx="2.97" ry="2.97"/>
      <rect class="cls-10" x="54" y="369.01" width="9" height="9" rx="2.97" ry="2.97"/>
      <rect class="cls-10" x="117" y="396.01" width="9" height="9" rx="2.97" ry="2.97"/>
      <rect class="cls-10" x="72" y="369.01" width="9" height="9" rx="2.97" ry="2.97"/>
      <rect class="cls-10" x="117" y="324.01" width="9" height="9" rx="2.97" ry="2.97"/>
      <rect class="cls-10" x="81" y="378.01" width="9" height="9" rx="2.97" ry="2.97"/>
      <path class="cls-10" d="M72,380.98v3.05c0,1.64,1.33,2.97,2.97,2.97h3.05c1.64,0,2.97,1.33,2.97,2.97v3.05c0,1.64-1.33,2.97-2.97,2.97h-12.06c-1.64,0-2.97-1.33-2.97-2.97v-12.06c0-1.64,1.33-2.97,2.97-2.97h3.05c1.64,0,2.97,1.33,2.97,2.97Z"/>
      <rect x="126" y="297.01" width="9" height="9" rx="2.97" ry="2.97"/>
      <rect x="108" y="297.01" width="9" height="9" rx="2.97" ry="2.97"/>
      <path class="cls-10" d="M186.03,342.01h-3.05c-1.64,0-2.97,1.33-2.97,2.97v3.05c0,1.64-1.33,2.97-2.97,2.97h-3.05c-1.64,0-2.97-1.33-2.97-2.97v-3.05c0-1.64-1.33-2.97-2.97-2.97h-3.05c-1.64,0-2.97-1.33-2.97-2.97v-3.06c0-1.64-1.33-2.97-2.97-2.97h-3.05c-1.64,0-2.97-1.33-2.97-2.97v-3.05c0-1.64,1.33-2.97,2.97-2.97h12.04c1.64,0,2.97,1.32,2.97,2.95l.02,3.1c0,1.64,1.34,2.96,2.98,2.96l12.03-.02c1.64,0,2.97,1.33,2.98,2.97v3.06c0,1.64-1.33,2.98-2.97,2.98Z"/>
      <rect x="90" y="297.01" width="9" height="9" rx="2.97" ry="2.97"/>
      <rect x="72" y="297.01" width="9" height="9" rx="2.97" ry="2.97"/>
      <rect x="54" y="297.01" width="9" height="9" rx="2.97" ry="2.97"/>
      <rect class="cls-10" x="36" y="333" width="9" height="9" rx="2.97" ry="2.97"/>
      <rect class="cls-10" x="135" y="288.01" width="9" height="9" rx="2.97" ry="2.97"/>
      <rect class="cls-10" x="180" y="369" width="9" height="9" rx="2.97" ry="2.97"/>
      <path d="M72,290.98v3.05c0,1.64-1.33,2.97-2.97,2.97h-3.05c-1.64,0-2.97-1.33-2.97-2.97v-3.06c0-1.64-1.33-2.98-2.97-2.97l-21.03.02c-1.64,0-2.98-1.33-2.98-2.97v-3.07c0-1.64,1.33-2.97,2.97-2.97h21.02c1.64,0,2.96,1.32,2.97,2.96l.02,3.09c0,1.64,1.34,2.96,2.97,2.96h3.05c1.64,0,2.97,1.33,2.97,2.97Z"/>
      <rect class="cls-10" x="90" y="405.01" width="9" height="9" rx="2.97" ry="2.97"/>
      <rect class="cls-10" x="108" y="405.01" width="9" height="9" rx="2.97" ry="2.97"/>
      <rect x="162" y="369.01" width="9" height="9" rx="2.97" ry="2.97"/>
      <rect class="cls-10" x="126" y="405.01" width="9" height="9" rx="2.97" ry="2.97"/>
      <rect class="cls-10" x="144" y="405.01" width="9" height="9" rx="2.97" ry="2.97"/>
      <path class="cls-10" d="M54,344.98v3.06c0,1.64,1.33,2.97,2.97,2.97h3.05c1.64,0,2.97,1.33,2.97,2.97v3.05c0,1.64-1.33,2.97-2.97,2.97h-3.05c-1.64,0-2.97,1.33-2.97,2.97v3.06c0,1.64-1.33,2.97-2.97,2.97h-3.06c-1.64,0-2.97-1.33-2.97-2.97v-21.06c0-1.64,1.34-2.97,2.98-2.97h3.06c1.64,0,2.97,1.33,2.97,2.97Z"/>
      <path class="cls-10" d="M90,344.98v3.06c0,1.64,1.33,2.97,2.97,2.97h3.05c1.64,0,2.97,1.33,2.97,2.97v3.05c0,1.64-1.33,2.97-2.97,2.97h-3.05c-1.64,0-2.97,1.33-2.97,2.97v3.06c0,1.64-1.33,2.97-2.97,2.97h-3.05c-1.64,0-2.97-1.33-2.97-2.97v-3.06c0-1.64-1.33-2.97-2.97-2.97h-3.05c-1.64,0-2.97-1.33-2.97-2.97v-3.05c0-1.64,1.33-2.97,2.97-2.97h3.05c1.64,0,2.97-1.33,2.97-2.97v-3.06c0-1.64,1.33-2.97,2.97-2.97h3.05c1.64,0,2.97,1.33,2.97,2.97Z"/>
      <path class="cls-10" d="M126,344.98v3.05c0,1.64,1.33,2.97,2.97,2.97h3.05c1.64,0,2.97,1.33,2.97,2.97v3.05c0,1.64-1.33,2.97-2.97,2.97h-3.05c-1.64,0-2.97,1.33-2.97,2.97v3.06c0,1.64-1.33,2.97-2.97,2.97h-3.05c-1.64,0-2.97-1.33-2.97-2.97v-3.05c0-1.64-1.33-2.97-2.97-2.97h-3.05c-1.64,0-2.97-1.33-2.97-2.97v-3.05c0-1.64,1.33-2.97,2.97-2.97h3.05c1.64,0,2.97-1.33,2.97-2.97v-3.05c0-1.64,1.33-2.97,2.97-2.97h3.05c1.64,0,2.97,1.33,2.97,2.97Z"/>
      <path class="cls-13" d="M132.03,288.01h-3.06c-1.64,0-2.97,1.33-2.97,2.97v3.05c0,1.64-1.33,2.97-2.97,2.97h-3.05c-1.64,0-2.97-1.33-2.97-2.97v-3.06c0-1.64-1.33-2.97-2.97-2.97h-3.06c-1.64,0-2.97,1.33-2.97,2.98v3.06c0,1.64-1.33,2.97-2.97,2.97h-3.05c-1.64,0-2.97-1.33-2.97-2.97v-3.06c0-1.64-1.33-2.97-2.97-2.97h-3.06c-1.64,0-2.97,1.33-2.97,2.98v3.06c0,1.64-1.33,2.97-2.97,2.97h-3.05c-1.64,0-2.97-1.33-2.97-2.97v-3.05c0-1.64-1.33-2.97-2.97-2.97h-3.05c-1.65,0-2.98-1.34-2.97-2.99v-3.06c.02-1.64,1.35-2.96,2.99-2.96l39,.02c1.63,0,2.96-1.31,2.97-2.94l.03-3.06c.02-1.65-1.32-3-2.97-3h-3.07c-1.64,0-2.97-1.34-2.97-2.98v-3.06c0-1.64,1.33-2.97,2.97-2.97h3.06c1.64,0,2.97,1.33,2.97,2.97v3.07c0,1.64,1.34,2.97,2.98,2.97h3.05c1.64,0,2.97-1.33,2.97-2.97v-3.07c0-1.64,1.34-2.97,2.98-2.97h3.06c1.64,0,2.97,1.33,2.97,2.97v3.06c0,1.64-1.33,2.97-2.97,2.97h-3.07c-1.64,0-2.97,1.33-2.97,2.98v3.05c0,1.64,1.33,2.97,2.97,2.97h3.07c1.64,0,2.97,1.34,2.97,2.98v3.05c0,1.64-1.33,2.97-2.97,2.97Z"/>
      <path class="cls-10" d="M162,344.98v3.06c0,1.64,1.33,2.97,2.97,2.97h3.05c1.64,0,2.97,1.33,2.97,2.97v3.05c0,1.64-1.33,2.97-2.97,2.97h-3.05c-1.64,0-2.97,1.33-2.97,2.97v3.05c0,1.64-1.33,2.97-2.97,2.97h-3.05c-1.64,0-2.97-1.33-2.97-2.97v-3.05c0-1.64-1.33-2.97-2.97-2.97h-3.05c-1.64,0-2.97-1.33-2.97-2.97v-3.05c0-1.64,1.33-2.97,2.97-2.97h3.05c1.64,0,2.97-1.33,2.97-2.97v-3.06c0-1.64,1.33-2.97,2.97-2.97h3.05c1.64,0,2.97,1.33,2.97,2.97Z"/>
      <path class="cls-10" d="M180,357.03v-3.05c0-1.64,1.33-2.97,2.97-2.97h3.05c1.64,0,2.97-1.33,2.97-2.97v-3.06c0-1.64,1.33-2.97,2.97-2.97h3.05c1.64,0,2.97,1.32,2.97,2.96v3.09c.02,1.64,1.35,2.96,2.99,2.96l21.01-.02c1.65,0,2.98,1.34,2.98,2.99l-.02,3.07c0,1.64-1.34,2.96-2.97,2.96h-39.01c-1.64,0-2.97-1.34-2.97-2.98Z"/>
      <path class="cls-10" d="M180,380.98v3.05c0,1.64,1.33,2.97,2.97,2.97h3.07c1.64,0,2.97,1.34,2.97,2.99v3.06c-.02,1.64-1.35,2.96-2.99,2.96l-12.05-.02c-1.64,0-2.98,1.33-2.98,2.98l.02,12.05c0,1.64-1.32,2.97-2.96,2.98h-3.06c-1.64.02-2.98-1.31-2.98-2.96v-3.07c0-1.64-1.34-2.97-2.98-2.97h-3.05c-1.64,0-2.97-1.33-2.97-2.97v-3.05c0-1.64,1.33-2.97,2.97-2.97h3.06c1.64,0,2.97-1.33,2.97-2.97v-3.05c0-1.64,1.33-2.97,2.97-2.97h3.05c1.64,0,2.97-1.33,2.97-2.97v-3.06c0-1.64,1.33-2.97,2.97-2.97h3.05c1.64,0,2.97,1.33,2.97,2.97Z"/>
      <rect class="cls-10" x="90" y="369.01" width="9" height="9" rx="2.97" ry="2.97"/>
      <rect class="cls-10" x="108" y="369.01" width="9" height="9" rx="2.97" ry="2.97"/>
      <rect class="cls-10" x="144" y="369.01" width="9" height="9" rx="2.97" ry="2.97"/>
      <rect class="cls-10" x="117" y="414.01" width="9" height="9" rx="2.97" ry="2.97"/>
      <rect class="cls-10" x="126" y="369.01" width="9" height="9" rx="2.97" ry="2.97"/>
      <path class="cls-13" d="M36,254.96v3.08c0,1.64,1.33,2.97,2.97,2.97h3.07c1.64,0,2.97,1.34,2.97,2.99v3.06c-.02,1.64-1.35,2.96-2.99,2.96h-12.06c-1.64,0-2.97-1.34-2.97-2.98v-12.04c.02-1.64-1.3-2.97-2.94-2.98l-3.11-.02c-1.63-.01-2.95-1.34-2.95-2.97v-21.02c0-1.64,1.33-2.97,2.97-2.97h3.07c1.64,0,2.97,1.33,2.97,2.98l-.02,21.02c0,1.64,1.32,2.97,2.96,2.98l3.06.02c1.65,0,2.99-1.32,2.99-2.97v-3.07c0-1.64,1.33-2.97,2.98-2.97h3.06c1.64,0,2.97,1.33,2.97,2.97v3.06c0,1.65-1.34,2.98-2.99,2.97l-3.03-.02c-1.65-.01-2.99,1.32-2.99,2.97Z"/>
      <path d="M258.02,324.01h-21.03c-1.64,0-2.97-1.33-2.97-2.97v-3.07c0-1.64,1.33-2.97,2.97-2.97h21.02c1.64,0,2.97,1.33,2.97,2.96v3.07c.01,1.64-1.32,2.98-2.96,2.98Z"/>
      <path class="cls-13" d="M36,164.96v3.08c0,1.64,1.33,2.97,2.97,2.97h3.07c1.64,0,2.97,1.34,2.97,2.99v3.06c-.02,1.64-1.35,2.96-2.99,2.96h-12.05c-1.64,0-2.97-1.34-2.97-2.98v-12.05c0-1.64,1.32-2.97,2.96-2.97h3.08c1.64-.02,2.96-1.34,2.96-2.98v-3.06c0-1.64,1.34-2.97,2.97-2.97h3.06c1.64,0,2.97-1.33,2.97-2.97v-3.07c0-1.64,1.34-2.97,2.98-2.97h3.05c1.64,0,2.97,1.33,2.97,2.97v3.06c0,1.64,1.33,2.97,2.97,2.97h3.06c1.64,0,2.97,1.33,2.97,2.98v3.06c0,1.64-1.33,2.97-2.97,2.97h-3.06c-1.64,0-2.97-1.33-2.97-2.97v-3.07c0-1.64-1.33-2.97-2.98-2.97h-3.05c-1.64,0-2.97,1.33-2.97,2.97v3.06c0,1.65-1.35,2.98-2.99,2.97l-3.02-.02c-1.65,0-2.99,1.32-2.99,2.97Z"/>
      <path class="cls-13" d="M321.04,18.01h-12.06c-1.64,0-2.97-1.33-2.97-2.97v-3.07c0-1.64,1.33-2.97,2.97-2.97h12.04c1.64,0,2.96,1.32,2.97,2.96l.02,3.07c0,1.65-1.32,2.99-2.97,2.99Z"/>
      <path d="M303.04,450.01h-12.06c-1.64,0-2.97-1.33-2.97-2.97v-3.07c0-1.64,1.33-2.97,2.97-2.97h12.04c1.64,0,2.96,1.32,2.97,2.96l.02,3.07c0,1.65-1.32,2.99-2.97,2.99Z"/>
      <path class="cls-13" d="M339.04,36.01h-12.06c-1.64,0-2.97-1.33-2.97-2.97v-3.07c0-1.64,1.33-2.97,2.97-2.97h12.04c1.64,0,2.96,1.32,2.97,2.96l.02,3.07c0,1.65-1.32,2.99-2.97,2.99Z"/>
      <path class="cls-13" d="M258.07,108.01h-3.1c-1.64,0-2.97-1.33-2.97-2.97v-3.07c0-1.64,1.33-2.97,2.97-2.97h3.07c1.63,0,2.96,1.31,2.97,2.94l.03,3.07c.02,1.65-1.32,3-2.97,3Z"/>
      <path class="cls-13" d="M276.07,108.01h-3.1c-1.64,0-2.97-1.33-2.97-2.97v-3.07c0-1.64,1.33-2.97,2.97-2.97h3.07c1.63,0,2.96,1.31,2.97,2.94l.03,3.07c.02,1.65-1.32,3-2.97,3Z"/>
      <path class="cls-13" d="M294.07,108.01h-3.1c-1.64,0-2.97-1.33-2.97-2.97v-3.07c0-1.64,1.33-2.97,2.97-2.97h3.07c1.63,0,2.96,1.31,2.97,2.94l.03,3.07c.02,1.65-1.32,3-2.97,3Z"/>
      <path class="cls-13" d="M312.07,108.01h-3.1c-1.64,0-2.97-1.33-2.97-2.97v-3.07c0-1.64,1.33-2.97,2.97-2.97h3.07c1.63,0,2.96,1.31,2.97,2.94l.03,3.07c.02,1.65-1.32,3-2.97,3Z"/>
      <path class="cls-13" d="M78.07,162.01h-3.1c-1.64,0-2.97-1.33-2.97-2.97v-3.07c0-1.64,1.33-2.97,2.97-2.97h3.07c1.63,0,2.96,1.31,2.97,2.94l.03,3.07c.02,1.65-1.32,3-2.97,3Z"/>
      <path class="cls-13" d="M60.07,180.01h-3.1c-1.64,0-2.97-1.33-2.97-2.97v-3.07c0-1.64,1.33-2.97,2.97-2.97h3.07c1.63,0,2.96,1.31,2.97,2.94l.03,3.07c.02,1.65-1.32,3-2.97,3Z"/>
      <path class="cls-13" d="M78.07,180.01h-3.1c-1.64,0-2.97-1.33-2.97-2.97v-3.07c0-1.64,1.33-2.97,2.97-2.97h3.07c1.63,0,2.96,1.31,2.97,2.94l.03,3.07c.02,1.65-1.32,3-2.97,3Z"/>
      <path class="cls-13" d="M96.07,180.01h-3.1c-1.64,0-2.97-1.33-2.97-2.97v-3.07c0-1.64,1.33-2.97,2.97-2.97h3.07c1.63,0,2.96,1.31,2.97,2.94l.03,3.07c.02,1.65-1.32,3-2.97,3Z"/>
      <path class="cls-1" d="M114.07,180.01h-3.1c-1.64,0-2.97-1.33-2.97-2.97v-3.07c0-1.64,1.33-2.97,2.97-2.97h3.07c1.63,0,2.96,1.31,2.97,2.94l.03,3.07c.02,1.65-1.32,3-2.97,3Z"/>
      <path class="cls-13" d="M24.07,198.01h-3.1c-1.64,0-2.97-1.33-2.97-2.97v-3.07c0-1.64,1.33-2.97,2.97-2.97h3.07c1.63,0,2.96,1.31,2.97,2.94l.03,3.07c.02,1.65-1.32,3-2.97,3Z"/>
      <path class="cls-13" d="M42.07,198.01h-3.1c-1.64,0-2.97-1.33-2.97-2.97v-3.07c0-1.64,1.33-2.97,2.97-2.97h3.07c1.63,0,2.96,1.31,2.97,2.94l.03,3.07c.02,1.65-1.32,3-2.97,3Z"/>
      <path class="cls-13" d="M60.07,198.01h-3.1c-1.64,0-2.97-1.33-2.97-2.97v-3.07c0-1.64,1.33-2.97,2.97-2.97h3.07c1.63,0,2.96,1.31,2.97,2.94l.03,3.07c.02,1.65-1.32,3-2.97,3Z"/>
      <path class="cls-13" d="M78.07,198.01h-3.1c-1.64,0-2.97-1.33-2.97-2.97v-3.07c0-1.64,1.33-2.97,2.97-2.97h3.07c1.63,0,2.96,1.31,2.97,2.94l.03,3.07c.02,1.65-1.32,3-2.97,3Z"/>
      <path class="cls-13" d="M96.07,198.01h-3.1c-1.64,0-2.97-1.33-2.97-2.97v-3.07c0-1.64,1.33-2.97,2.97-2.97h3.07c1.63,0,2.96,1.31,2.97,2.94l.03,3.07c.02,1.65-1.32,3-2.97,3Z"/>
      <path class="cls-13" d="M114.07,198.01h-3.1c-1.64,0-2.97-1.33-2.97-2.97v-3.07c0-1.64,1.33-2.97,2.97-2.97h3.07c1.63,0,2.96,1.31,2.97,2.94l.03,3.07c.02,1.65-1.32,3-2.97,3Z"/>
      <path class="cls-13" d="M24.07,216.01h-3.1c-1.64,0-2.97-1.33-2.97-2.97v-3.07c0-1.64,1.33-2.97,2.97-2.97h3.07c1.63,0,2.96,1.31,2.97,2.94l.03,3.07c.02,1.65-1.32,3-2.97,3Z"/>
      <path class="cls-13" d="M42.07,216.01h-3.1c-1.64,0-2.97-1.33-2.97-2.97v-3.07c0-1.64,1.33-2.97,2.97-2.97h3.07c1.63,0,2.96,1.31,2.97,2.94l.03,3.07c.02,1.65-1.32,3-2.97,3Z"/>
      <path class="cls-13" d="M60.07,216.01h-3.1c-1.64,0-2.97-1.33-2.97-2.97v-3.07c0-1.64,1.33-2.97,2.97-2.97h3.07c1.63,0,2.96,1.31,2.97,2.94l.03,3.07c.02,1.65-1.32,3-2.97,3Z"/>
      <path class="cls-13" d="M78.07,216.01h-3.1c-1.64,0-2.97-1.33-2.97-2.97v-3.07c0-1.64,1.33-2.97,2.97-2.97h3.07c1.63,0,2.96,1.31,2.97,2.94l.03,3.07c.02,1.65-1.32,3-2.97,3Z"/>
      <path class="cls-13" d="M96.07,216.01h-3.1c-1.64,0-2.97-1.33-2.97-2.97v-3.07c0-1.64,1.33-2.97,2.97-2.97h3.07c1.63,0,2.96,1.31,2.97,2.94l.03,3.07c.02,1.65-1.32,3-2.97,3Z"/>
      <path class="cls-13" d="M114.07,216.01h-3.1c-1.64,0-2.97-1.33-2.97-2.97v-3.07c0-1.64,1.33-2.97,2.97-2.97h3.07c1.63,0,2.96,1.31,2.97,2.94l.03,3.07c.02,1.65-1.32,3-2.97,3Z"/>
      <path class="cls-13" d="M132.07,216.01h-3.1c-1.64,0-2.97-1.33-2.97-2.97v-3.07c0-1.64,1.33-2.97,2.97-2.97h3.07c1.63,0,2.96,1.31,2.97,2.94l.03,3.07c.02,1.65-1.32,3-2.97,3Z"/>
      <path class="cls-13" d="M312.07,90.01h-3.1c-1.64,0-2.97-1.33-2.97-2.97v-3.07c0-1.64,1.33-2.97,2.97-2.97h3.07c1.63,0,2.96,1.31,2.97,2.94l.03,3.07c.02,1.65-1.32,3-2.97,3Z"/>
      <path class="cls-13" d="M294.07,90.01h-3.1c-1.64,0-2.97-1.33-2.97-2.97v-3.07c0-1.64,1.33-2.97,2.97-2.97h3.07c1.63,0,2.96,1.31,2.97,2.94l.03,3.07c.02,1.65-1.32,3-2.97,3Z"/>
      <path class="cls-13" d="M42.07,234.01h-3.1c-1.64,0-2.97-1.33-2.97-2.97v-3.07c0-1.64,1.33-2.97,2.97-2.97h3.07c1.63,0,2.96,1.31,2.97,2.94l.03,3.07c.02,1.65-1.32,3-2.97,3Z"/>
      <path class="cls-13" d="M60.07,234.01h-3.1c-1.64,0-2.97-1.33-2.97-2.97v-3.07c0-1.64,1.33-2.97,2.97-2.97h3.07c1.63,0,2.96,1.31,2.97,2.94l.03,3.07c.02,1.65-1.32,3-2.97,3Z"/>
      <path class="cls-13" d="M78.07,234.01h-3.1c-1.64,0-2.97-1.33-2.97-2.97v-3.07c0-1.64,1.33-2.97,2.97-2.97h3.07c1.63,0,2.96,1.31,2.97,2.94l.03,3.07c.02,1.65-1.32,3-2.97,3Z"/>
      <path class="cls-13" d="M96.07,234.01h-3.1c-1.64,0-2.97-1.33-2.97-2.97v-3.07c0-1.64,1.33-2.97,2.97-2.97h3.07c1.63,0,2.96,1.31,2.97,2.94l.03,3.07c.02,1.65-1.32,3-2.97,3Z"/>
      <path class="cls-13" d="M132.07,234.01h-3.1c-1.64,0-2.97-1.33-2.97-2.97v-3.07c0-1.64,1.33-2.97,2.97-2.97h3.07c1.63,0,2.96,1.31,2.97,2.94l.03,3.07c.02,1.65-1.32,3-2.97,3Z"/>
      <path class="cls-13" d="M276.07,90.01h-3.1c-1.64,0-2.97-1.33-2.97-2.97v-3.07c0-1.64,1.33-2.97,2.97-2.97h3.07c1.63,0,2.96,1.31,2.97,2.94l.03,3.07c.02,1.65-1.32,3-2.97,3Z"/>
      <path class="cls-13" d="M258.07,90.01h-3.1c-1.64,0-2.97-1.33-2.97-2.97v-3.07c0-1.64,1.33-2.97,2.97-2.97h3.07c1.63,0,2.96,1.31,2.97,2.94l.03,3.07c.02,1.65-1.32,3-2.97,3Z"/>
      <path class="cls-13" d="M240.07,90.01h-3.1c-1.64,0-2.97-1.33-2.97-2.97v-3.07c0-1.64,1.33-2.97,2.97-2.97h3.07c1.63,0,2.96,1.31,2.97,2.94l.03,3.07c.02,1.65-1.32,3-2.97,3Z"/>
      <path class="cls-13" d="M60.07,252.01h-3.1c-1.64,0-2.97-1.33-2.97-2.97v-3.07c0-1.64,1.33-2.97,2.97-2.97h3.07c1.63,0,2.96,1.31,2.97,2.94l.03,3.07c.02,1.65-1.32,3-2.97,3Z"/>
      <path class="cls-13" d="M78.07,252.01h-3.1c-1.64,0-2.97-1.33-2.97-2.97v-3.07c0-1.64,1.33-2.97,2.97-2.97h3.07c1.63,0,2.96,1.31,2.97,2.94l.03,3.07c.02,1.65-1.32,3-2.97,3Z"/>
      <path class="cls-13" d="M96.07,252.01h-3.1c-1.64,0-2.97-1.33-2.97-2.97v-3.07c0-1.64,1.33-2.97,2.97-2.97h3.07c1.63,0,2.96,1.31,2.97,2.94l.03,3.07c.02,1.65-1.32,3-2.97,3Z"/>
      <path class="cls-13" d="M114.07,252.01h-3.1c-1.64,0-2.97-1.33-2.97-2.97v-3.07c0-1.64,1.33-2.97,2.97-2.97h3.07c1.63,0,2.96,1.31,2.97,2.94l.03,3.07c.02,1.65-1.32,3-2.97,3Z"/>
      <path class="cls-13" d="M132.07,252.01h-3.1c-1.64,0-2.97-1.33-2.97-2.97v-3.07c0-1.64,1.33-2.97,2.97-2.97h3.07c1.63,0,2.96,1.31,2.97,2.94l.03,3.07c.02,1.65-1.32,3-2.97,3Z"/>
      <path class="cls-13" d="M60.07,270.01h-3.1c-1.64,0-2.97-1.33-2.97-2.97v-3.07c0-1.64,1.33-2.97,2.97-2.97h3.07c1.63,0,2.96,1.31,2.97,2.94l.03,3.07c.02,1.65-1.32,3-2.97,3Z"/>
      <path class="cls-13" d="M78.07,270.01h-3.1c-1.64,0-2.97-1.33-2.97-2.97v-3.07c0-1.64,1.33-2.97,2.97-2.97h3.07c1.63,0,2.96,1.31,2.97,2.94l.03,3.07c.02,1.65-1.32,3-2.97,3Z"/>
      <path class="cls-13" d="M96.07,270.01h-3.1c-1.64,0-2.97-1.33-2.97-2.97v-3.07c0-1.64,1.33-2.97,2.97-2.97h3.07c1.63,0,2.96,1.31,2.97,2.94l.03,3.07c.02,1.65-1.32,3-2.97,3Z"/>
      <path d="M240.06,288.01h-3.09c-1.64,0-2.97-1.33-2.97-2.97v-3.06c0-1.64,1.33-2.97,2.97-2.97h3.06c1.64,0,2.97-1.33,2.97-2.97v-3.06c0-1.64,1.33-2.97,2.97-2.97h3.06c1.64,0,2.97,1.33,2.97,2.97v3.06c0,1.64-1.33,2.97-2.97,2.97h-3.06c-1.65,0-2.98,1.34-2.97,2.99l.02,3.02c.01,1.65-1.32,2.99-2.97,2.99Z"/>
      <path d="M276.06,306.01h-3.09c-1.64,0-2.97-1.33-2.97-2.97v-3.06c0-1.64,1.33-2.97,2.97-2.97h3.06c1.64,0,2.97-1.33,2.97-2.97v-3.06c0-1.64,1.33-2.97,2.97-2.97h3.06c1.64,0,2.97,1.33,2.97,2.97v3.06c0,1.64-1.33,2.97-2.97,2.97h-3.06c-1.65,0-2.98,1.34-2.97,2.99l.02,3.02c.01,1.65-1.32,2.99-2.97,2.99Z"/>
      <path d="M240.07,306.01h-3.1c-1.64,0-2.97-1.33-2.97-2.97v-3.07c0-1.64,1.33-2.97,2.97-2.97h3.07c1.63,0,2.96,1.31,2.97,2.94l.03,3.07c.02,1.65-1.32,3-2.97,3Z"/>
      <path d="M258.07,306.01h-3.1c-1.64,0-2.97-1.33-2.97-2.97v-3.07c0-1.64,1.33-2.97,2.97-2.97h3.07c1.63,0,2.96,1.31,2.97,2.94l.03,3.07c.02,1.65-1.32,3-2.97,3Z"/>
      <path class="cls-13" d="M285.05,9h-3.08c-1.64,0-2.97,1.33-2.97,2.97v3.08c0,1.64-1.34,2.97-2.98,2.97h-3.05c-1.64,0-2.97-1.33-2.97-2.97v-3.08c0-1.64-1.34-2.97-2.98-2.97h-3.05c-1.64,0-2.97,1.33-2.97,2.97v3.07c0,1.64-1.33,2.97-2.98,2.97h-3.06c-1.64,0-2.97-1.33-2.97-2.98v-3.06c0-1.64,1.33-2.97,2.97-2.97h3.06c1.64,0,2.97-1.33,2.97-2.97v-3.06c0-1.64,1.34-2.97,2.98-2.97h3.05c1.64,0,2.97,1.33,2.97,2.97v3.07c0,1.64,1.34,2.97,2.98,2.97h3.05c1.64,0,2.97-1.33,2.97-2.97v-3.08C279.01,1.33,280.34,0,281.98,0h3.05c1.64,0,2.97,1.33,2.97,2.97v3.07c0,1.64,1.34,2.97,2.97,2.97h3.06c1.64,0,2.97,1.33,2.97,2.97v3.06c0,1.64-1.33,2.97-2.97,2.97h-3.06c-1.65,0-2.98-1.34-2.97-2.99l.02-3.03c.01-1.65-1.32-2.99-2.97-2.99Z"/>
      <path class="cls-13" d="M330.07,72.01h-3.1c-1.64,0-2.97-1.33-2.97-2.97v-3.07c0-1.64,1.33-2.97,2.97-2.97h3.07c1.63,0,2.96,1.31,2.97,2.94l.03,3.07c.02,1.65-1.32,3-2.97,3Z"/>
      <path class="cls-13" d="M312.07,72.01h-3.1c-1.64,0-2.97-1.33-2.97-2.97v-3.07c0-1.64,1.33-2.97,2.97-2.97h3.07c1.63,0,2.96,1.31,2.97,2.94l.03,3.07c.02,1.65-1.32,3-2.97,3Z"/>
      <path class="cls-13" d="M294.07,72.01h-3.1c-1.64,0-2.97-1.33-2.97-2.97v-3.07c0-1.64,1.33-2.97,2.97-2.97h3.07c1.63,0,2.96,1.31,2.97,2.94l.03,3.07c.02,1.65-1.32,3-2.97,3Z"/>
      <path class="cls-13" d="M276.07,72.01h-3.1c-1.64,0-2.97-1.33-2.97-2.97v-3.07c0-1.64,1.33-2.97,2.97-2.97h3.07c1.63,0,2.96,1.31,2.97,2.94l.03,3.07c.02,1.65-1.32,3-2.97,3Z"/>
      <path class="cls-13" d="M258.07,72.01h-3.1c-1.64,0-2.97-1.33-2.97-2.97v-3.07c0-1.64,1.33-2.97,2.97-2.97h3.07c1.63,0,2.96,1.31,2.97,2.94l.03,3.07c.02,1.65-1.32,3-2.97,3Z"/>
      <path class="cls-10" d="M240.07,360.01h-3.1c-1.64,0-2.97-1.33-2.97-2.97v-3.07c0-1.64,1.33-2.97,2.97-2.97h3.07c1.63,0,2.96,1.31,2.97,2.94l.03,3.07c.02,1.65-1.32,3-2.97,3Z"/>
      <path class="cls-10" d="M204.07,378.01h-3.1c-1.64,0-2.97-1.33-2.97-2.97v-3.07c0-1.64,1.33-2.97,2.97-2.97h3.07c1.63,0,2.96,1.31,2.97,2.94l.03,3.07c.02,1.65-1.32,3-2.97,3Z"/>
      <path class="cls-10" d="M222.07,378.01h-3.1c-1.64,0-2.97-1.33-2.97-2.97v-3.07c0-1.64,1.33-2.97,2.97-2.97h3.07c1.63,0,2.96,1.31,2.97,2.94l.03,3.07c.02,1.65-1.32,3-2.97,3Z"/>
      <path class="cls-10" d="M240.07,378.01h-3.1c-1.64,0-2.97-1.33-2.97-2.97v-3.07c0-1.64,1.33-2.97,2.97-2.97h3.07c1.63,0,2.96,1.31,2.97,2.94l.03,3.07c.02,1.65-1.32,3-2.97,3Z"/>
      <path class="cls-10" d="M258.07,378.01h-3.1c-1.64,0-2.97-1.33-2.97-2.97v-3.07c0-1.64,1.33-2.97,2.97-2.97h3.07c1.63,0,2.96,1.31,2.97,2.94l.03,3.07c.02,1.65-1.32,3-2.97,3Z"/>
      <path class="cls-10" d="M276.07,378.01h-3.1c-1.64,0-2.97-1.33-2.97-2.97v-3.07c0-1.64,1.33-2.97,2.97-2.97h3.07c1.63,0,2.96,1.31,2.97,2.94l.03,3.07c.02,1.65-1.32,3-2.97,3Z"/>
      <path class="cls-13" d="M330.07,54.01h-3.1c-1.64,0-2.97-1.33-2.97-2.97v-3.07c0-1.64,1.33-2.97,2.97-2.97h3.07c1.63,0,2.96,1.31,2.97,2.94l.03,3.07c.02,1.65-1.32,3-2.97,3Z"/>
      <path class="cls-13" d="M312.07,54.01h-3.1c-1.64,0-2.97-1.33-2.97-2.97v-3.07c0-1.64,1.33-2.97,2.97-2.97h3.07c1.63,0,2.96,1.31,2.97,2.94l.03,3.07c.02,1.65-1.32,3-2.97,3Z"/>
      <path class="cls-13" d="M294.07,54.01h-3.1c-1.64,0-2.97-1.33-2.97-2.97v-3.07c0-1.64,1.33-2.97,2.97-2.97h3.07c1.63,0,2.96,1.31,2.97,2.94l.03,3.07c.02,1.65-1.32,3-2.97,3Z"/>
      <path class="cls-10" d="M204.07,396.01h-3.1c-1.64,0-2.97-1.33-2.97-2.97v-3.07c0-1.64,1.33-2.97,2.97-2.97h3.07c1.63,0,2.96,1.31,2.97,2.94l.03,3.07c.02,1.65-1.32,3-2.97,3Z"/>
      <path class="cls-10" d="M222.07,396.01h-3.1c-1.64,0-2.97-1.33-2.97-2.97v-3.07c0-1.64,1.33-2.97,2.97-2.97h3.07c1.63,0,2.96,1.31,2.97,2.94l.03,3.07c.02,1.65-1.32,3-2.97,3Z"/>
      <path class="cls-10" d="M240.07,396.01h-3.1c-1.64,0-2.97-1.33-2.97-2.97v-3.07c0-1.64,1.33-2.97,2.97-2.97h3.07c1.63,0,2.96,1.31,2.97,2.94l.03,3.07c.02,1.65-1.32,3-2.97,3Z"/>
      <path class="cls-10" d="M258.07,396.01h-3.1c-1.64,0-2.97-1.33-2.97-2.97v-3.07c0-1.64,1.33-2.97,2.97-2.97h3.07c1.63,0,2.96,1.31,2.97,2.94l.03,3.07c.02,1.65-1.32,3-2.97,3Z"/>
      <path class="cls-10" d="M276.07,396.01h-3.1c-1.64,0-2.97-1.33-2.97-2.97v-3.07c0-1.64,1.33-2.97,2.97-2.97h3.07c1.63,0,2.96,1.31,2.97,2.94l.03,3.07c.02,1.65-1.32,3-2.97,3Z"/>
      <path class="cls-10" d="M186.07,414.01h-3.1c-1.64,0-2.97-1.33-2.97-2.97v-3.07c0-1.64,1.33-2.97,2.97-2.97h3.07c1.63,0,2.96,1.31,2.97,2.94l.03,3.07c.02,1.65-1.32,3-2.97,3Z"/>
      <path class="cls-10" d="M204.07,414.01h-3.1c-1.64,0-2.97-1.33-2.97-2.97v-3.07c0-1.64,1.33-2.97,2.97-2.97h3.07c1.63,0,2.96,1.31,2.97,2.94l.03,3.07c.02,1.65-1.32,3-2.97,3Z"/>
      <path class="cls-10" d="M222.07,414.01h-3.1c-1.64,0-2.97-1.33-2.97-2.97v-3.07c0-1.64,1.33-2.97,2.97-2.97h3.07c1.63,0,2.96,1.31,2.97,2.94l.03,3.07c.02,1.65-1.32,3-2.97,3Z"/>
      <path class="cls-10" d="M240.07,414.01h-3.1c-1.64,0-2.97-1.33-2.97-2.97v-3.07c0-1.64,1.33-2.97,2.97-2.97h3.07c1.63,0,2.96,1.31,2.97,2.94l.03,3.07c.02,1.65-1.32,3-2.97,3Z"/>
      <path class="cls-10" d="M258.07,414.01h-3.1c-1.64,0-2.97-1.33-2.97-2.97v-3.07c0-1.64,1.33-2.97,2.97-2.97h3.07c1.63,0,2.96,1.31,2.97,2.94l.03,3.07c.02,1.65-1.32,3-2.97,3Z"/>
      <path class="cls-10" d="M276.07,414.01h-3.1c-1.64,0-2.97-1.33-2.97-2.97v-3.07c0-1.64,1.33-2.97,2.97-2.97h3.07c1.63,0,2.96,1.31,2.97,2.94l.03,3.07c.02,1.65-1.32,3-2.97,3Z"/>
      <path d="M294.07,414.01h-3.1c-1.64,0-2.97-1.33-2.97-2.97v-3.07c0-1.64,1.33-2.97,2.97-2.97h3.07c1.63,0,2.96,1.31,2.97,2.94l.03,3.07c.02,1.65-1.32,3-2.97,3Z"/>
      <path class="cls-13" d="M276.07,54.01h-3.1c-1.64,0-2.97-1.33-2.97-2.97v-3.07c0-1.64,1.33-2.97,2.97-2.97h3.07c1.63,0,2.96,1.31,2.97,2.94l.03,3.07c.02,1.65-1.32,3-2.97,3Z"/>
      <path class="cls-13" d="M258.07,54.01h-3.1c-1.64,0-2.97-1.33-2.97-2.97v-3.07c0-1.64,1.33-2.97,2.97-2.97h3.07c1.63,0,2.96,1.31,2.97,2.94l.03,3.07c.02,1.65-1.32,3-2.97,3Z"/>
      <path class="cls-10" d="M182.93,441h3.11c1.64,0,2.97,1.34,2.97,2.98v3.06c0,1.64-1.33,2.97-2.97,2.97h-3.06c-1.64,0-2.97-1.33-2.97-2.97v-3.07c0-1.64-1.33-2.97-2.97-2.97h-3.06c-1.64,0-2.97-1.33-2.97-2.97v-3.06c0-1.64-1.33-2.97-2.97-2.97h-3.07c-1.64,0-2.97-1.34-2.97-2.98v-3.06c0-1.64,1.33-2.97,2.97-2.97h3.06c1.64,0,2.97,1.33,2.97,2.97v3.07c0,1.64,1.34,2.97,2.98,2.97h3.05c1.64,0,2.97-1.33,2.97-2.97v-3.07c0-1.64,1.34-2.97,2.98-2.97h3.06c1.64,0,2.97,1.33,2.97,2.97v3.06c0,1.64-1.33,2.97-2.97,2.97h-3.07c-1.63,0-2.96,1.32-2.97,2.95l-.03,3.05c-.01,1.65,1.32,3,2.97,3Z"/>
      <path class="cls-10" d="M204.07,432.01h-3.1c-1.64,0-2.97-1.33-2.97-2.97v-3.07c0-1.64,1.33-2.97,2.97-2.97h3.07c1.63,0,2.96,1.31,2.97,2.94l.03,3.07c.02,1.65-1.32,3-2.97,3Z"/>
      <path class="cls-10" d="M222.07,432.01h-3.1c-1.64,0-2.97-1.33-2.97-2.97v-3.07c0-1.64,1.33-2.97,2.97-2.97h3.07c1.63,0,2.96,1.31,2.97,2.94l.03,3.07c.02,1.65-1.32,3-2.97,3Z"/>
      <path class="cls-10" d="M240.07,432.01h-3.1c-1.64,0-2.97-1.33-2.97-2.97v-3.07c0-1.64,1.33-2.97,2.97-2.97h3.07c1.63,0,2.96,1.31,2.97,2.94l.03,3.07c.02,1.65-1.32,3-2.97,3Z"/>
      <path class="cls-10" d="M258.07,432.01h-3.1c-1.64,0-2.97-1.33-2.97-2.97v-3.07c0-1.64,1.33-2.97,2.97-2.97h3.07c1.63,0,2.96,1.31,2.97,2.94l.03,3.07c.02,1.65-1.32,3-2.97,3Z"/>
      <path class="cls-10" d="M276.07,432.01h-3.1c-1.64,0-2.97-1.33-2.97-2.97v-3.07c0-1.64,1.33-2.97,2.97-2.97h3.07c1.63,0,2.96,1.31,2.97,2.94l.03,3.07c.02,1.65-1.32,3-2.97,3Z"/>
      <path d="M294.07,432.01h-3.1c-1.64,0-2.97-1.33-2.97-2.97v-3.07c0-1.64,1.33-2.97,2.97-2.97h3.07c1.63,0,2.96,1.31,2.97,2.94l.03,3.07c.02,1.65-1.32,3-2.97,3Z"/>
      <path class="cls-10" d="M204.07,450.01h-3.1c-1.64,0-2.97-1.33-2.97-2.97v-3.07c0-1.64,1.33-2.97,2.97-2.97h3.07c1.63,0,2.96,1.31,2.97,2.94l.03,3.07c.02,1.65-1.32,3-2.97,3Z"/>
      <path class="cls-10" d="M222.07,450.01h-3.1c-1.64,0-2.97-1.33-2.97-2.97v-3.07c0-1.64,1.33-2.97,2.97-2.97h3.07c1.63,0,2.96,1.31,2.97,2.94l.03,3.07c.02,1.65-1.32,3-2.97,3Z"/>
      <path class="cls-10" d="M240.07,450.01h-3.1c-1.64,0-2.97-1.33-2.97-2.97v-3.07c0-1.64,1.33-2.97,2.97-2.97h3.07c1.63,0,2.96,1.31,2.97,2.94l.03,3.07c.02,1.65-1.32,3-2.97,3Z"/>
      <path class="cls-10" d="M258.07,450.01h-3.1c-1.64,0-2.97-1.33-2.97-2.97v-3.07c0-1.64,1.33-2.97,2.97-2.97h3.07c1.63,0,2.96,1.31,2.97,2.94l.03,3.07c.02,1.65-1.32,3-2.97,3Z"/>
      <path class="cls-10" d="M276.07,450.01h-3.1c-1.64,0-2.97-1.33-2.97-2.97v-3.07c0-1.64,1.33-2.97,2.97-2.97h3.07c1.63,0,2.96,1.31,2.97,2.94l.03,3.07c.02,1.65-1.32,3-2.97,3Z"/>
      <path class="cls-13" d="M312.07,36.01h-3.1c-1.64,0-2.97-1.33-2.97-2.97v-3.07c0-1.64,1.33-2.97,2.97-2.97h3.07c1.63,0,2.96,1.31,2.97,2.94l.03,3.07c.02,1.65-1.32,3-2.97,3Z"/>
      <path class="cls-13" d="M294.07,36.01h-3.1c-1.64,0-2.97-1.33-2.97-2.97v-3.07c0-1.64,1.33-2.97,2.97-2.97h3.07c1.63,0,2.96,1.31,2.97,2.94l.03,3.07c.02,1.65-1.32,3-2.97,3Z"/>
      <path class="cls-13" d="M276.07,36.01h-3.1c-1.64,0-2.97-1.33-2.97-2.97v-3.07c0-1.64,1.33-2.97,2.97-2.97h3.07c1.63,0,2.96,1.31,2.97,2.94l.03,3.07c.02,1.65-1.32,3-2.97,3Z"/>
      <path class="cls-10" d="M204.07,468.01h-3.1c-1.64,0-2.97-1.33-2.97-2.97v-3.07c0-1.64,1.33-2.97,2.97-2.97h3.07c1.63,0,2.96,1.31,2.97,2.94l.03,3.07c.02,1.65-1.32,3-2.97,3Z"/>
      <path class="cls-13" d="M258.07,36.01h-3.1c-1.64,0-2.97-1.33-2.97-2.97v-3.07c0-1.64,1.33-2.97,2.97-2.97h3.07c1.63,0,2.96,1.31,2.97,2.94l.03,3.07c.02,1.65-1.32,3-2.97,3Z"/>
    </g>
  </g>
</svg>