<?xml version="1.0" encoding="UTF-8"?>
<svg id="Layer_2" data-name="Layer 2" xmlns="http://www.w3.org/2000/svg" viewBox="0 0 278.21 49.68">
  <defs>
    <style>
      .cls-1 {
        fill: #bb3d70;
      }

      .cls-1, .cls-2, .cls-3, .cls-4 {
        font-family: INDGLuara-Medium, 'INDG Luara';
        font-size: 18px;
        font-weight: 500;
      }

      .cls-5 {
        fill: #e5e5e5;
      }

      .cls-2 {
        fill: #29a9e0;
      }

      .cls-6 {
        fill: #808285;
      }

      .cls-3 {
        fill: #39b34a;
      }

      .cls-4 {
        fill: #8500dc;
      }
    </style>
  </defs>
  <g id="Layer_1-2" data-name="Layer 1">
    <g>
      <g>
        <text class="cls-4" transform="translate(2.88 31.59)"><tspan x="0" y="0">Index</tspan></text>
        <g>
          <polygon class="cls-6" points="1.12 36.71 1.12 35.59 0 35.59 0 25.34 1.12 25.34 1.12 16.34 2.25 16.34 2.25 15.21 3.38 15.21 3.38 14.09 14.75 14.09 14.75 15.21 15.88 15.21 15.88 16.34 18.12 16.34 18.12 25.46 15.88 25.46 15.88 27.71 14.75 27.71 14.75 31.09 13.62 31.09 13.62 34.46 12.5 34.46 12.5 35.59 11.38 35.59 11.38 36.71 1.12 36.71"/>
          <polygon class="cls-6" points="11.25 35.59 11.25 33.34 9 33.34 9 23.09 10.12 23.09 10.12 20.84 11.25 20.84 11.25 19.71 12.38 19.71 12.38 18.59 27.12 18.59 27.12 19.71 28.25 19.71 28.25 24.21 30.5 24.21 30.5 33.34 29.38 33.34 29.38 34.46 28.25 34.46 28.25 35.59 11.25 35.59"/>
          <polygon class="cls-6" points="23.62 35.59 23.62 34.46 22.5 34.46 22.5 23.09 23.62 23.09 23.62 20.84 24.75 20.84 24.75 19.71 25.88 19.71 25.88 18.59 30.38 18.59 30.38 16.34 31.5 16.34 31.5 14.09 40.62 14.09 40.62 33.34 39.5 33.34 39.5 34.46 38.38 34.46 38.38 35.59 23.62 35.59"/>
          <polygon class="cls-6" points="33.75 35.59 33.75 34.46 32.62 34.46 32.62 23.09 33.75 23.09 33.75 20.84 34.88 20.84 34.88 19.71 36 19.71 36 18.59 46.25 18.59 46.25 19.71 47.38 19.71 47.38 24.21 48.5 24.21 48.5 33.34 47.38 33.34 47.38 34.46 45.12 34.46 45.12 35.59 33.75 35.59"/>
          <polygon class="cls-6" points="40.5 35.59 40.5 33.34 39.38 33.34 39.38 23.09 40.5 23.09 40.5 20.84 41.62 20.84 41.62 19.71 42.75 19.71 42.75 18.59 57.5 18.59 57.5 33.34 56.38 33.34 56.38 34.46 55.25 34.46 55.25 35.59 40.5 35.59"/>
        </g>
        <g>
          <polygon class="cls-5" points="2.12 35.71 2.12 34.59 1 34.59 1 26.34 2.12 26.34 2.12 17.34 3.25 17.34 3.25 16.21 4.38 16.21 4.38 15.09 13.75 15.09 13.75 16.21 14.88 16.21 14.88 17.34 17.12 17.34 17.12 24.46 14.88 24.46 14.88 26.71 13.75 26.71 13.75 30.09 12.62 30.09 12.62 33.46 11.5 33.46 11.5 34.59 10.38 34.59 10.38 35.71 2.12 35.71"/>
          <polygon class="cls-5" points="12.25 34.59 12.25 32.34 10 32.34 10 24.09 11.12 24.09 11.12 21.84 12.25 21.84 12.25 20.71 13.38 20.71 13.38 19.59 26.12 19.59 26.12 20.71 27.25 20.71 27.25 25.21 29.5 25.21 29.5 32.34 28.38 32.34 28.38 33.46 27.25 33.46 27.25 34.59 12.25 34.59"/>
          <polygon class="cls-5" points="24.62 34.59 24.62 33.46 23.5 33.46 23.5 24.09 24.62 24.09 24.62 21.84 25.75 21.84 25.75 20.71 26.88 20.71 26.88 19.59 31.38 19.59 31.38 17.34 32.5 17.34 32.5 15.09 39.62 15.09 39.62 23.34 38.5 23.34 38.5 25.21 39.62 25.21 39.62 32.34 38.5 32.34 38.5 33.46 37.38 33.46 37.38 34.59 24.62 34.59"/>
          <polygon class="cls-5" points="34.75 34.59 34.75 33.46 33.62 33.46 33.62 24.09 34.75 24.09 34.75 21.84 35.88 21.84 35.88 20.71 37 20.71 37 19.59 45.25 19.59 45.25 20.71 46.38 20.71 46.38 25.21 47.5 25.21 47.5 32.34 46.38 32.34 46.38 33.46 44.12 33.46 44.12 34.59 34.75 34.59"/>
          <polygon class="cls-5" points="41.5 34.59 41.5 32.34 40.38 32.34 40.38 24.09 41.5 24.09 41.5 21.84 42.62 21.84 42.62 20.71 43.75 20.71 43.75 19.59 56.5 19.59 56.5 32.34 55.38 32.34 55.38 33.46 54.25 33.46 54.25 34.59 41.5 34.59"/>
        </g>
        <text class="cls-2" transform="translate(2.88 31.59)"><tspan x="0" y="0">Index</tspan></text>
      </g>
      <g>
        <text class="cls-4" transform="translate(65.08 31.59)"><tspan x="0" y="0">of</tspan></text>
        <g>
          <polygon class="cls-6" points="62.21 35.59 62.21 34.46 61.08 34.46 61.08 21.96 62.21 21.96 62.21 19.71 63.33 19.71 63.33 18.59 75.83 18.59 75.83 19.71 76.96 19.71 76.96 24.21 79.21 24.21 79.21 33.34 78.08 33.34 78.08 34.46 73.58 34.46 73.58 35.59 62.21 35.59"/>
          <polygon class="cls-6" points="70.08 40.09 70.08 23.09 71.21 23.09 71.21 21.96 72.33 21.96 72.33 20.84 73.46 20.84 73.46 17.46 74.58 17.46 74.58 15.21 75.71 15.21 75.71 14.09 84.83 14.09 84.83 15.21 85.96 15.21 85.96 33.34 84.83 33.34 84.83 34.46 83.71 34.46 83.71 35.59 80.33 35.59 80.33 37.84 79.21 37.84 79.21 40.09 70.08 40.09"/>
        </g>
        <g>
          <polygon class="cls-5" points="63.21 34.59 63.21 33.46 62.08 33.46 62.08 22.96 63.21 22.96 63.21 20.71 64.33 20.71 64.33 19.59 74.83 19.59 74.83 20.71 75.96 20.71 75.96 25.21 78.21 25.21 78.21 32.34 77.08 32.34 77.08 33.46 72.58 33.46 72.58 34.59 63.21 34.59"/>
          <polygon class="cls-5" points="71.08 39.09 71.08 24.09 72.21 24.09 72.21 22.96 73.33 22.96 73.33 21.84 74.46 21.84 74.46 18.46 75.58 18.46 75.58 16.21 76.71 16.21 76.71 15.09 83.83 15.09 83.83 16.21 84.96 16.21 84.96 32.34 83.83 32.34 83.83 33.46 82.71 33.46 82.71 34.59 79.33 34.59 79.33 36.84 78.21 36.84 78.21 39.09 71.08 39.09"/>
        </g>
        <text class="cls-3" transform="translate(65.08 31.59)"><tspan x="0" y="0">of</tspan></text>
      </g>
      <g>
        <text class="cls-4" transform="translate(92.46 31.59)"><tspan x="0" y="0">Remembering</tspan></text>
        <g>
          <polygon class="cls-6" points="90.71 37.84 90.71 36.71 89.58 36.71 89.58 27.59 90.71 27.59 90.71 19.71 91.83 19.71 91.83 17.46 92.96 17.46 92.96 16.34 94.08 16.34 94.08 15.21 96.33 15.21 96.33 14.09 108.83 14.09 108.83 15.21 109.96 15.21 109.96 16.34 111.08 16.34 111.08 34.46 109.96 34.46 109.96 35.59 102.08 35.59 102.08 36.71 100.96 36.71 100.96 37.84 90.71 37.84"/>
          <polygon class="cls-6" points="104.21 35.59 104.21 34.46 103.08 34.46 103.08 23.09 104.21 23.09 104.21 20.84 105.33 20.84 105.33 19.71 106.46 19.71 106.46 18.59 116.71 18.59 116.71 19.71 117.83 19.71 117.83 24.21 118.96 24.21 118.96 33.34 117.83 33.34 117.83 34.46 115.58 34.46 115.58 35.59 104.21 35.59"/>
          <polygon class="cls-6" points="112.08 35.59 112.08 33.34 109.83 33.34 109.83 23.09 110.96 23.09 110.96 20.84 112.08 20.84 112.08 19.71 113.21 19.71 113.21 18.59 131.33 18.59 131.33 19.71 132.46 19.71 132.46 24.21 134.71 24.21 134.71 33.34 133.58 33.34 133.58 34.46 132.46 34.46 132.46 35.59 112.08 35.59"/>
          <polygon class="cls-6" points="127.83 35.59 127.83 34.46 126.71 34.46 126.71 23.09 127.83 23.09 127.83 20.84 128.96 20.84 128.96 19.71 130.08 19.71 130.08 18.59 140.33 18.59 140.33 19.71 141.46 19.71 141.46 24.21 142.58 24.21 142.58 33.34 141.46 33.34 141.46 34.46 139.21 34.46 139.21 35.59 127.83 35.59"/>
          <polygon class="cls-6" points="135.71 35.59 135.71 33.34 133.46 33.34 133.46 23.09 134.58 23.09 134.58 20.84 135.71 20.84 135.71 19.71 136.83 19.71 136.83 18.59 154.96 18.59 154.96 19.71 156.08 19.71 156.08 24.21 158.33 24.21 158.33 33.34 157.21 33.34 157.21 34.46 156.08 34.46 156.08 35.59 135.71 35.59"/>
          <polygon class="cls-6" points="151.46 35.59 151.46 34.46 150.33 34.46 150.33 23.09 151.46 23.09 151.46 20.84 152.58 20.84 152.58 18.59 153.71 18.59 153.71 16.34 154.83 16.34 154.83 14.09 163.96 14.09 163.96 18.59 165.08 18.59 165.08 19.71 166.21 19.71 166.21 24.21 168.46 24.21 168.46 33.34 167.33 33.34 167.33 34.46 166.21 34.46 166.21 35.59 151.46 35.59"/>
          <polygon class="cls-6" points="161.58 35.59 161.58 34.46 160.46 34.46 160.46 23.09 161.58 23.09 161.58 20.84 162.71 20.84 162.71 19.71 163.83 19.71 163.83 18.59 174.08 18.59 174.08 19.71 175.21 19.71 175.21 24.21 176.33 24.21 176.33 33.34 175.21 33.34 175.21 34.46 172.96 34.46 172.96 35.59 161.58 35.59"/>
          <polygon class="cls-6" points="171.71 35.59 171.71 34.46 170.58 34.46 170.58 33.34 167.21 33.34 167.21 23.09 168.33 23.09 168.33 20.84 169.46 20.84 169.46 17.46 178.58 17.46 178.58 18.59 181.96 18.59 181.96 24.21 184.21 24.21 184.21 33.34 183.08 33.34 183.08 34.46 181.96 34.46 181.96 35.59 171.71 35.59"/>
          <polygon class="cls-6" points="178.46 35.59 178.46 34.46 177.33 34.46 177.33 33.34 175.08 33.34 175.08 23.09 176.21 23.09 176.21 20.84 177.33 20.84 177.33 19.71 178.46 19.71 178.46 18.59 179.58 18.59 179.58 16.34 180.71 16.34 180.71 15.21 189.83 15.21 189.83 24.21 190.96 24.21 190.96 33.34 189.83 33.34 189.83 34.46 188.71 34.46 188.71 35.59 178.46 35.59"/>
          <polygon class="cls-6" points="184.08 35.59 184.08 33.34 181.83 33.34 181.83 23.09 182.96 23.09 182.96 20.84 184.08 20.84 184.08 19.71 185.21 19.71 185.21 18.59 199.96 18.59 199.96 19.71 201.08 19.71 201.08 24.21 203.33 24.21 203.33 33.34 202.21 33.34 202.21 34.46 201.08 34.46 201.08 35.59 184.08 35.59"/>
          <polygon class="cls-6" points="194.21 40.09 194.21 38.96 193.08 38.96 193.08 29.84 194.21 29.84 194.21 28.71 195.33 28.71 195.33 23.09 196.46 23.09 196.46 20.84 197.58 20.84 197.58 19.71 198.71 19.71 198.71 18.59 212.33 18.59 212.33 24.21 213.46 24.21 213.46 33.34 212.33 33.34 212.33 34.46 211.21 34.46 211.21 35.59 210.08 35.59 210.08 36.71 207.83 36.71 207.83 37.84 206.71 37.84 206.71 38.96 205.58 38.96 205.58 40.09 194.21 40.09"/>
        </g>
        <g>
          <polygon class="cls-5" points="91.71 36.84 91.71 35.71 90.58 35.71 90.58 28.59 91.71 28.59 91.71 20.71 92.83 20.71 92.83 18.46 93.96 18.46 93.96 17.34 95.08 17.34 95.08 16.21 97.33 16.21 97.33 15.09 107.83 15.09 107.83 16.21 108.96 16.21 108.96 17.34 110.08 17.34 110.08 33.46 108.96 33.46 108.96 34.59 101.08 34.59 101.08 35.71 99.96 35.71 99.96 36.84 91.71 36.84"/>
          <polygon class="cls-5" points="105.21 34.59 105.21 33.46 104.08 33.46 104.08 24.09 105.21 24.09 105.21 21.84 106.33 21.84 106.33 20.71 107.46 20.71 107.46 19.59 115.71 19.59 115.71 20.71 116.83 20.71 116.83 25.21 117.96 25.21 117.96 32.34 116.83 32.34 116.83 33.46 114.58 33.46 114.58 34.59 105.21 34.59"/>
          <polygon class="cls-5" points="113.08 34.59 113.08 32.34 110.83 32.34 110.83 24.09 111.96 24.09 111.96 21.84 113.08 21.84 113.08 20.71 114.21 20.71 114.21 19.59 130.33 19.59 130.33 20.71 131.46 20.71 131.46 25.21 133.71 25.21 133.71 32.34 132.58 32.34 132.58 33.46 131.46 33.46 131.46 34.59 113.08 34.59"/>
          <polygon class="cls-5" points="128.83 34.59 128.83 33.46 127.71 33.46 127.71 24.09 128.83 24.09 128.83 21.84 129.96 21.84 129.96 20.71 131.08 20.71 131.08 19.59 139.33 19.59 139.33 20.71 140.46 20.71 140.46 25.21 141.58 25.21 141.58 32.34 140.46 32.34 140.46 33.46 138.21 33.46 138.21 34.59 128.83 34.59"/>
          <polygon class="cls-5" points="136.71 34.59 136.71 32.34 134.46 32.34 134.46 24.09 135.58 24.09 135.58 21.84 136.71 21.84 136.71 20.71 137.83 20.71 137.83 19.59 153.96 19.59 153.96 20.71 155.08 20.71 155.08 25.21 157.33 25.21 157.33 32.34 156.21 32.34 156.21 33.46 155.08 33.46 155.08 34.59 136.71 34.59"/>
          <polygon class="cls-5" points="152.46 34.59 152.46 33.46 151.33 33.46 151.33 24.09 152.46 24.09 152.46 21.84 153.58 21.84 153.58 19.59 154.71 19.59 154.71 17.34 155.83 17.34 155.83 15.09 162.96 15.09 162.96 19.59 164.08 19.59 164.08 20.71 165.21 20.71 165.21 25.21 167.46 25.21 167.46 32.34 166.33 32.34 166.33 33.46 165.21 33.46 165.21 34.59 152.46 34.59"/>
          <polygon class="cls-5" points="162.58 34.59 162.58 33.46 161.46 33.46 161.46 24.09 162.58 24.09 162.58 21.84 163.71 21.84 163.71 20.71 164.83 20.71 164.83 19.59 173.08 19.59 173.08 20.71 174.21 20.71 174.21 25.21 175.33 25.21 175.33 32.34 174.21 32.34 174.21 33.46 171.96 33.46 171.96 34.59 162.58 34.59"/>
          <polygon class="cls-5" points="172.71 34.59 172.71 33.46 171.58 33.46 171.58 32.34 168.21 32.34 168.21 24.09 169.33 24.09 169.33 21.84 170.46 21.84 170.46 18.46 177.58 18.46 177.58 19.59 180.96 19.59 180.96 25.21 183.21 25.21 183.21 32.34 182.08 32.34 182.08 33.46 180.96 33.46 180.96 34.59 172.71 34.59"/>
          <polygon class="cls-5" points="179.46 34.59 179.46 33.46 178.33 33.46 178.33 32.34 176.08 32.34 176.08 24.09 177.21 24.09 177.21 21.84 178.33 21.84 178.33 20.71 179.46 20.71 179.46 19.59 180.58 19.59 180.58 17.34 181.71 17.34 181.71 16.21 188.83 16.21 188.83 23.34 187.71 23.34 187.71 25.21 189.96 25.21 189.96 32.34 188.83 32.34 188.83 33.46 187.71 33.46 187.71 34.59 179.46 34.59"/>
          <polygon class="cls-5" points="185.08 34.59 185.08 32.34 182.83 32.34 182.83 24.09 183.96 24.09 183.96 21.84 185.08 21.84 185.08 20.71 186.21 20.71 186.21 19.59 198.96 19.59 198.96 20.71 200.08 20.71 200.08 25.21 202.33 25.21 202.33 32.34 201.21 32.34 201.21 33.46 200.08 33.46 200.08 34.59 185.08 34.59"/>
          <polygon class="cls-5" points="195.21 39.09 195.21 37.96 194.08 37.96 194.08 30.84 195.21 30.84 195.21 29.71 196.33 29.71 196.33 24.09 197.46 24.09 197.46 21.84 198.58 21.84 198.58 20.71 199.71 20.71 199.71 19.59 211.33 19.59 211.33 25.21 212.46 25.21 212.46 32.34 211.33 32.34 211.33 33.46 210.21 33.46 210.21 34.59 209.08 34.59 209.08 35.71 206.83 35.71 206.83 36.84 205.71 36.84 205.71 37.96 204.58 37.96 204.58 39.09 195.21 39.09"/>
        </g>
        <text class="cls-1" transform="translate(92.46 31.59)"><tspan x="0" y="0">Remembering</tspan></text>
      </g>
    </g>
  </g>
</svg>